<?xml version="1.0" encoding="UTF-8" standalone="no"?>
<!DOCTYPE svg PUBLIC "-//W3C//DTD SVG 1.1//EN" "http://www.w3.org/Graphics/SVG/1.1/DTD/svg11.dtd">
<!-- Created with Vectornator (http://vectornator.io/) -->
<svg height="1080.0px" stroke-miterlimit="10" style="fill-rule:nonzero;clip-rule:evenodd;stroke-linecap:round;stroke-linejoin:round;" version="1.1" viewBox="0 0 1080 1080" width="1080.0px" xml:space="preserve" xmlns="http://www.w3.org/2000/svg" xmlns:xlink="http://www.w3.org/1999/xlink">
<defs/>
<g id="Capa-1">
<path d="M620.554 717.817C580.467 757.181 528.517 784.714 469.395 793.898C317.077 817.559 174.843 710.468 151.705 554.702C128.567 398.937 233.289 253.483 385.606 229.821C537.924 206.16 680.158 313.251 703.296 469.017" fill="none" opacity="0.998733" stroke="#90c039" stroke-linecap="round" stroke-linejoin="round" stroke-width="30"/>
<path d="M703.296 474.212C703.296 532.826 852.692 505.496 852.692 505.496" fill="none" opacity="0.998733" stroke="#90c039" stroke-linecap="round" stroke-linejoin="round" stroke-width="30"/>
<g opacity="1">
<path d="M702.502 458.41C701.361 458.378 700.146 458.501 698.912 458.804C693.977 460.015 690.612 463.596 691.399 466.805C691.099 470.464 690.481 474.042 689.35 477.541C686.247 487.145 680.191 495.34 674.363 503.438C667.722 512.667 661.058 522.139 656.847 532.759C653.872 540.26 651.733 548.072 650.574 556.06C647.866 574.738 650.864 593.869 657.861 611.311C661.096 619.375 665.239 626.897 669.665 634.353C673.014 639.994 676.511 645.501 680.422 650.775C685.623 657.788 691.381 664.329 697.484 670.566C697.904 671.123 698.937 671.052 699.793 670.406C700.649 669.76 701.007 668.787 700.587 668.231C692.638 660.108 685.33 651.43 679.001 641.98C676.905 638.851 674.833 635.662 673.022 632.358C669.691 626.281 667.025 619.716 664.808 613.16C656.041 587.24 655.779 559.183 668.177 534.354C670.865 528.971 674.018 523.718 677.579 518.866C680.561 514.803 683.916 511.014 687.081 507.095C693.62 499.001 700.016 490.585 704.271 481.024C706.913 475.087 708.551 468.872 709.275 462.421C708.685 460.014 705.926 458.505 702.502 458.41Z" fill="#90c039" stroke="none"/>
</g>
<g opacity="1">
<path d="M700.721 488.754C699.036 488.774 697.183 489.18 695.359 490.007C690.497 492.21 687.717 496.562 689.15 499.722C692.589 511.602 696.632 523.289 701.171 534.794C702.514 538.2 704.016 541.536 705.428 544.913C706.955 548.567 708.153 552.345 709.634 556.018C713.899 566.594 717.792 577.249 720.448 588.357C724.397 604.875 725.391 623.748 718.547 639.679C717.341 642.484 715.845 645.2 714.25 647.8C709.557 655.452 703.538 662.049 696.868 668.011C696.592 668.401 696.854 669.061 697.454 669.485C698.054 669.91 698.76 669.938 699.036 669.548C705.562 663.715 711.511 657.301 716.282 649.935C723.13 639.361 727.742 627.197 729.515 614.727C731.386 601.566 730.367 588.121 728.2 575.062C727.224 569.18 726.023 563.346 724.734 557.526C723.861 553.584 723.021 549.629 721.956 545.733C721.336 543.461 720.555 541.233 719.93 538.96C718.848 535.03 717.926 531.066 716.788 527.15C713.365 515.363 709.704 503.664 706.754 491.743C705.859 489.767 703.529 488.721 700.721 488.754Z" fill="#90c039" stroke="none"/>
</g>
<g opacity="1">
<path d="M777.556 208.252C771.383 208.355 765.174 209.148 758.867 210.429C754.456 211.324 750.102 212.345 745.798 213.676C736.73 216.481 727.984 220.263 719.65 224.799C713.134 228.345 706.857 232.334 700.863 236.704C689.141 245.249 678.152 255.312 669.168 266.731C666.915 269.594 664.894 272.635 662.878 275.667C660.43 279.349 658.087 283.076 656.069 287.015C648.871 301.067 645.335 316.486 647.025 332.268C648.232 335.472 653.208 336.565 658.138 334.709C663.068 332.852 666.085 328.752 664.878 325.547C662.932 311.85 665.719 298.984 671.149 286.428C672.594 283.086 674.116 279.75 675.942 276.596C677.159 274.495 678.523 272.503 679.86 270.478C683.991 264.221 688.53 258.287 693.648 252.801C697.955 248.184 702.604 243.876 707.48 239.869C717.325 231.777 728.258 224.947 739.904 219.766C745.87 217.111 752.107 214.806 758.471 213.305C771.806 210.159 786.021 210.317 799.078 214.547C799.587 214.954 800.506 214.65 801.132 213.867C801.758 213.084 801.856 212.117 801.347 211.71C793.377 209.129 785.493 208.12 777.556 208.252Z" fill="#90c039" stroke="none"/>
</g>
<g opacity="1">
<path d="M800.182 212.232C799.251 212.256 798.51 212.768 798.526 213.373C793.888 224.686 787.803 235.495 780.584 245.368C774.655 253.478 767.61 260.928 760.43 267.935C750.195 277.924 739.043 287.112 727.071 294.952C722.095 298.21 716.986 301.185 711.788 304.069C708.997 305.617 706.23 307.235 703.357 308.63C689.816 315.203 675.408 320.517 660.506 322.873C657.892 322.331 655.1 325.148 654.265 329.169C653.431 333.19 654.871 336.89 657.485 337.433C686.147 332.063 711.745 317.762 734.183 299.573C751.556 285.49 767.228 269.247 780.13 250.954C783.53 246.133 786.937 241.296 790.059 236.288C794.632 228.95 798.618 221.285 801.899 213.285C801.883 212.68 801.114 212.207 800.182 212.232Z" fill="#90c039" stroke="none"/>
</g>
<g opacity="1">
<path d="M170.098 379.273C153.338 379.602 136.629 382.155 120.73 387.565C88.4189 398.559 59.3743 419.714 39.6056 447.607C32.4893 457.648 26.7968 468.491 22.2015 479.892C20.2216 484.804 18.3005 489.709 16.7325 494.772C13.7504 504.404 11.821 514.279 10.6887 524.29C10.8398 524.931 11.763 525.26 12.7491 525.027C13.7352 524.795 14.4112 524.091 14.2601 523.45C15.9356 508.636 19.3846 493.475 25.5745 479.851C28.8308 472.684 32.8553 465.813 37.2857 459.313C54.7821 433.645 79.5745 414.493 108.632 403.606C112.938 401.992 117.389 400.738 121.829 399.551C135.507 395.895 149.474 394.077 163.632 394.153C166.303 395.314 169.915 392.921 171.701 388.812C173.486 384.703 172.769 380.433 170.098 379.273Z" fill="#90c039" stroke="none"/>
</g>
<g opacity="1">
<path d="M105.757 398.019C103.843 398.075 101.693 398.68 99.6478 399.856C94.9732 402.542 92.6011 407.183 94.347 410.221C96.7836 414.615 98.7531 419.188 99.8359 424.111C100.458 426.939 100.753 429.814 100.74 432.709C100.719 437.64 99.9141 442.793 98.2276 447.439C97.2494 450.134 95.856 452.689 94.507 455.212C88.4445 466.553 79.1666 475.912 69.479 484.209C66.662 486.622 63.7799 488.952 60.8497 491.226C56.9325 494.266 52.9342 497.197 48.8718 500.04C43.5086 503.792 38.0347 507.284 32.4052 510.621C25.5484 514.685 18.6173 518.629 11.8139 522.783C11.4242 523.02 11.406 523.696 11.7699 524.295C12.1338 524.895 12.7444 525.192 13.1341 524.955C20.8968 520.216 28.8132 515.739 36.6178 511.069C42.9329 507.291 49.3599 503.7 55.6529 499.883C60.6513 496.852 65.5725 493.695 70.3752 490.362C74.1671 487.73 77.8857 484.99 81.505 482.125C88.687 476.439 95.4822 470.185 101.392 463.174C103.869 460.235 106.26 457.183 108.269 453.9C109.562 451.787 110.68 449.556 111.766 447.331C115.014 440.676 117.21 433.706 117.447 426.256C117.563 422.584 117.26 418.896 116.559 415.29C115.55 410.1 113.616 405.215 111.274 400.496C110.292 398.787 108.218 397.948 105.757 398.019Z" fill="#90c039" stroke="none"/>
</g>
<g opacity="1">
<path d="M299.486 632.954C292.047 635.169 285.062 638.134 278.209 641.762C272.729 644.663 267.385 647.651 262.39 651.351C251.374 659.509 241.892 670.107 235.327 682.168C234.07 684.476 233.154 686.925 232.136 689.343C230.74 692.659 229.52 695.973 228.668 699.475C226.956 706.52 226.501 713.786 226.831 721.01C227.953 724.222 232.872 725.427 237.815 723.7C242.757 721.973 245.853 717.969 244.73 714.756C243.954 707.553 244.227 700.422 245.334 693.27C245.599 691.559 245.802 689.821 246.178 688.129C246.558 686.419 247.208 684.801 247.744 683.139C248.899 679.555 250.173 676.062 251.917 672.715C257.885 661.259 267.476 651.564 278.327 644.655C280.252 643.429 282.335 642.413 284.393 641.43C289.254 639.108 294.293 637.267 299.452 635.731C299.95 635.738 300.361 635.12 300.371 634.353C300.381 633.586 299.985 632.96 299.486 632.954Z" fill="#90c039" stroke="none"/>
</g>
<g opacity="1">
<path d="M301.629 634.154C301.297 634.135 300.928 634.189 300.558 634.326C299.571 634.691 298.963 635.508 299.201 636.149C299.643 640.09 299.816 644.066 299.259 648.006C298.971 650.044 298.528 651.996 297.631 653.855C296.854 655.467 295.91 656.997 294.776 658.383C291.881 661.921 287.865 664.315 283.558 665.743C282.218 666.187 280.832 666.481 279.467 666.838C276.015 667.74 272.512 668.056 268.992 668.579C267.855 668.747 266.736 669.027 265.599 669.198C262.736 669.629 259.876 669.872 257.03 670.444C252.069 671.441 247.235 672.824 242.51 674.631C240.188 675.079 238.864 678.337 239.553 681.91C240.242 685.483 242.682 688.017 245.005 687.57C249.6 685.476 254.414 684.08 259.202 682.511C262.081 681.568 264.943 680.593 267.826 679.661C272.633 678.108 277.282 675.99 281.845 673.847C288.987 670.492 295.952 665.676 299.59 658.454C301.298 655.063 302.292 650.977 302.821 647.23C303.403 643.107 303.237 638.95 302.774 634.826C302.626 634.425 302.181 634.187 301.629 634.154Z" fill="#90c039" stroke="none"/>
</g>
<g opacity="1">
<path d="M555.071 767.104C550.475 767.089 546.741 769.498 546.731 772.485C544.455 777.983 542.169 783.492 540.293 789.143C539.248 792.289 538.514 795.47 537.725 798.684C537.286 800.471 536.707 802.212 536.364 804.023C534.317 814.837 533.707 826.656 535.908 837.482C537.273 844.196 540.018 850.316 542.953 856.462C545.551 861.903 548.95 866.863 552.828 871.467C553.231 872.038 554.271 872.001 555.15 871.381C556.03 870.762 556.416 869.795 556.013 869.223C552.698 865.29 549.747 861.101 547.354 856.541C546.518 854.946 545.649 853.3 545.055 851.595C543.793 847.971 543.158 844.016 542.805 840.208C541.943 830.901 543.249 821.521 545.997 812.613C547.166 808.822 548.712 805.209 550.145 801.517C550.66 800.192 551.085 798.838 551.651 797.533C553.106 794.177 554.779 790.897 556.314 787.575C558.638 782.548 560.975 777.532 563.376 772.541C563.385 769.554 559.668 767.118 555.071 767.104Z" fill="#90c039" stroke="none"/>
</g>
<g opacity="1">
<path d="M98.4098 401.586C97.4414 401.59 96.587 401.893 95.9852 402.523C90.4265 407.065 85.071 411.908 80.3438 417.325C78.9363 418.938 77.68 420.662 76.35 422.337C75.4561 423.463 74.4887 424.531 73.6241 425.679C71.3037 428.761 69.2585 432.083 67.2165 435.353C63 442.105 59.1551 449.104 55.8785 456.362C54.2076 460.064 52.7487 463.839 51.2846 467.624C50.2973 470.177 49.1133 472.654 48.1134 475.205C46.636 478.973 45.344 482.803 44.1766 486.678C44.2439 487.302 45.0772 487.724 46.0364 487.621C46.9956 487.517 47.7192 486.927 47.6519 486.304C48.9878 481.868 50.4957 477.499 52.2457 473.209C53.0056 471.347 53.7493 469.44 54.6893 467.66C56.8164 463.631 59.29 459.758 61.8299 455.979C68.0571 446.716 75.1909 438.248 83.2218 430.504C84.4064 429.362 85.4873 428.12 86.6862 426.993C88.3496 425.43 90.1405 423.997 91.8502 422.484C96.2075 418.628 100.658 414.915 105.347 411.463C106.951 409.783 106.156 406.42 103.571 403.951C101.956 402.408 100.024 401.58 98.4098 401.586Z" fill="#90c039" stroke="none"/>
</g>
<g opacity="1">
<path d="M733.164 262.654C726.209 265.015 719.941 268.545 713.51 272.031C703.926 277.227 695.012 283.554 686.62 290.494C683.534 293.047 680.341 295.593 677.545 298.462C676.552 299.481 675.626 300.567 674.629 301.583C673.118 303.121 671.607 304.625 670.209 306.268C665.947 311.273 662.325 316.764 659.251 322.567C659.135 325.504 662.704 328.029 667.224 328.208C671.743 328.387 675.499 326.151 675.616 323.214C677.723 318.523 680.33 314.147 683.091 309.815C684.651 307.368 686.148 304.977 687.917 302.676C690.145 299.775 692.16 296.746 694.529 293.95C699.037 288.631 703.977 283.694 709.287 279.176C712.103 276.781 715.015 274.362 718.165 272.413C722.896 269.485 728.06 267.156 733.322 265.372C733.809 265.344 734.169 264.713 734.126 263.963C734.083 263.212 733.652 262.626 733.164 262.654Z" fill="#90c039" stroke="none"/>
</g>
<g opacity="1">
<path d="M696.642 497.114C692.932 497.355 690.022 499.283 689.851 501.818C686.546 508.489 683.716 515.425 682.019 522.692C681.266 525.913 680.928 529.138 680.596 532.421C680.436 534.006 680.177 535.59 680.089 537.181C679.816 542.06 680.332 547.059 680.887 551.902C682.448 565.519 686.405 578.591 689.639 591.861C690.31 594.618 690.658 597.474 691.102 600.276C691.899 605.309 692.575 610.359 693.148 615.422C693.386 616.064 694.379 616.284 695.366 615.919C696.352 615.553 696.959 614.738 696.721 614.097C696.145 609.006 695.465 603.929 694.664 598.868C694.28 596.445 693.805 594.028 693.465 591.599C692.743 586.428 692.498 581.142 692.099 575.938C691.37 566.442 690.933 556.861 691.811 547.358C692.194 543.222 692.939 539.174 693.805 535.117C694.192 533.302 694.444 531.461 694.918 529.666C695.41 527.798 696.091 525.982 696.713 524.155C699.223 516.788 702.19 509.712 705.991 502.909C706.186 500.011 702.735 497.419 698.278 497.118C697.721 497.08 697.173 497.08 696.642 497.114Z" fill="#90c039" stroke="none"/>
</g>
<g opacity="1">
<path d="M559.662 771.423C557.24 771.407 554.317 772.904 552.066 775.562C548.791 779.428 548.173 784.288 550.686 786.417C557.155 788.564 560.656 792.834 563.632 798.764C564.177 799.849 564.734 800.939 565.137 802.088C565.884 804.221 566.243 806.561 566.741 808.767C568.435 816.267 568.204 824.216 567.284 831.803C566.489 838.359 565.29 845.114 563.127 851.372C561.956 854.759 560.267 858.072 558.589 861.225C557.224 863.789 555.68 866.285 553.81 868.513C553.633 868.999 554.093 869.616 554.84 869.889C555.587 870.163 556.339 869.988 556.516 869.502C561.039 864.104 563.673 857.604 566.544 851.257C568.377 847.205 570.255 843.197 571.844 839.038C573.218 835.439 574.441 831.785 575.514 828.086C577.424 821.506 578.909 814.789 579.597 807.965C579.843 805.522 580.109 803.042 579.999 800.583C579.93 799.033 579.658 797.494 579.478 795.955C579.254 794.046 579.053 792.146 578.56 790.284C577.15 784.954 574.099 779.978 569.771 776.526C567.577 774.776 565.134 773.479 562.546 772.416C561.761 771.75 560.763 771.431 559.662 771.423Z" fill="#90c039" stroke="none"/>
</g>
<g opacity="1">
<path d="M293.608 260.762C291.191 260.79 288.338 262.636 286.411 265.674C283.842 269.725 283.893 274.363 286.526 276.033C294.83 277.152 301.395 281.247 308.612 285.26C310.865 286.513 313.184 287.627 315.464 288.827C317.249 289.767 318.981 290.767 320.85 291.538C324.002 292.839 327.312 293.76 330.631 294.524C342.351 297.221 354.454 297.393 366.36 295.973C372.711 295.216 378.928 293.875 385.205 292.701C393.404 291.167 401.63 289.743 409.839 288.262C410.361 288.365 410.915 287.799 411.073 286.996C411.232 286.193 410.934 285.459 410.412 285.356C404.96 286.34 399.519 287.388 394.067 288.374C391.344 288.866 388.614 289.416 385.87 289.779C381.631 290.339 377.299 290.551 373.028 290.674C362.227 290.986 351.211 290.121 341.029 286.256C338.556 285.317 336.104 284.238 333.808 282.92C332.322 282.066 330.916 281.087 329.461 280.185C328.473 279.573 327.465 278.99 326.527 278.306C325.101 277.267 323.783 276.097 322.422 274.978C320.06 273.035 317.601 271.176 315.058 269.476C309.123 265.509 302.853 262.674 295.83 261.363C295.171 260.946 294.414 260.752 293.608 260.762Z" fill="#90c039" stroke="none"/>
</g>
<g opacity="1">
<path d="M336.284 257.449C335.16 257.459 334.034 257.486 332.91 257.482C330.708 257.473 328.516 257.427 326.317 257.594C316.568 258.332 306.939 261.108 298.559 266.185C296.653 267.437 296.669 270.827 298.595 273.759C300.52 276.69 303.624 278.052 305.53 276.801C309.784 273.935 314.737 272.469 319.689 271.32C322.639 270.635 325.641 269.969 328.638 269.523C330.25 269.282 331.869 269.224 333.491 269.086C337.436 268.75 341.348 268.367 345.312 268.292C356.582 268.08 367.967 269.414 378.912 272.092C382.588 272.991 386.324 273.99 389.845 275.393C391.631 276.105 393.349 277.047 395.034 277.966C400.067 280.709 404.781 284.052 408.54 288.412C408.945 288.982 409.984 288.938 410.86 288.315C411.736 287.691 412.121 286.723 411.715 286.153C408.068 281.924 403.554 278.597 398.711 275.852C396.648 274.682 394.499 273.701 392.393 272.619C390.583 271.689 388.796 270.726 386.955 269.858C379.856 266.512 372.459 263.945 364.876 261.942C356.664 259.772 348.138 258.124 339.654 257.525C338.53 257.446 337.407 257.439 336.284 257.449Z" fill="#90c039" stroke="none"/>
</g>
<path d="M868.514 426.241C854.011 426.241 842.255 437.998 842.255 452.5L842.255 575.307C842.255 589.809 854.011 601.566 868.514 601.566L998.298 601.566L998.298 426.241L868.514 426.241Z" fill="#90c039" fill-rule="nonzero" opacity="1" stroke="#90c039" stroke-linecap="butt" stroke-linejoin="round" stroke-width="5"/>
<path d="M985.209 400.191C985.209 398.56 986.531 397.238 988.163 397.238L1011.12 397.238C1012.75 397.238 1014.07 398.56 1014.07 400.191L1014.07 623.528C1014.07 625.159 1012.75 626.481 1011.12 626.481L988.163 626.481C986.531 626.481 985.209 625.159 985.209 623.528L985.209 400.191Z" fill="#90c039" fill-rule="nonzero" opacity="1" stroke="none"/>
<path d="M1052.23 442.604C1061.75 442.617 1069.46 450.347 1069.44 459.869L1069.44 459.869C1069.43 469.392 1061.7 477.101 1052.18 477.088L1015.54 477.036C1006.02 477.023 998.308 469.293 998.321 459.771L998.321 459.771C998.334 450.248 1006.06 442.539 1015.59 442.552L1052.23 442.604Z" fill="#90c039" fill-rule="nonzero" opacity="1" stroke="none"/>
<path d="M1052.2 551.871C1061.72 551.885 1069.43 559.614 1069.42 569.136L1069.42 569.136C1069.41 578.659 1061.68 586.369 1052.15 586.355L1015.52 586.304C1005.99 586.29 998.285 578.56 998.298 569.038L998.298 569.038C998.31 559.515 1006.04 551.806 1015.56 551.82L1052.2 551.871Z" fill="#90c039" fill-rule="nonzero" opacity="1" stroke="none"/>
<path d="M457.813 308.822C458.88 307.73 460.676 308.891 460.117 310.312L401.788 458.637C401.48 459.422 401.929 460.298 402.746 460.506L569.568 502.899C570.571 503.154 570.96 504.372 570.29 505.161L386.423 721.868C385.4 723.074 383.475 721.923 384.054 720.451L454.326 541.769C454.652 540.941 454.132 540.023 453.254 539.876L265.786 508.627C264.671 508.441 264.225 507.077 265.015 506.268L457.813 308.822Z" fill="#ffcc3b" fill-rule="nonzero" opacity="0.998733" stroke="none"/>
</g>
</svg>
