<?xml version="1.0" encoding="UTF-8" standalone="no"?>
<!DOCTYPE svg PUBLIC "-//W3C//DTD SVG 1.1//EN" "http://www.w3.org/Graphics/SVG/1.1/DTD/svg11.dtd">
<!-- Created with Vectornator (http://vectornator.io/) -->
<svg height="1080.0px" stroke-miterlimit="10" style="fill-rule:nonzero;clip-rule:evenodd;stroke-linecap:round;stroke-linejoin:round;" version="1.1" viewBox="0 0 1080 1080" width="1080.0px" xml:space="preserve" xmlns="http://www.w3.org/2000/svg" xmlns:xlink="http://www.w3.org/1999/xlink">
<defs/>
<g id="Capa-1" visibility="hidden">
<path d="M620.554 717.817C580.467 757.181 528.517 784.714 469.395 793.898C317.077 817.559 174.843 710.468 151.705 554.702C128.567 398.937 233.289 253.483 385.606 229.821C537.924 206.16 680.158 313.251 703.296 469.017" fill="none" opacity="0.998733" stroke="#90c039" stroke-linecap="round" stroke-linejoin="round" stroke-width="30"/>
<path d="M703.296 474.212C703.296 532.826 852.692 505.496 852.692 505.496" fill="none" opacity="0.998733" stroke="#90c039" stroke-linecap="round" stroke-linejoin="round" stroke-width="30"/>
<g opacity="1">
<path d="M702.502 458.41C701.361 458.378 700.146 458.501 698.912 458.804C693.977 460.015 690.612 463.596 691.399 466.805C691.099 470.464 690.481 474.042 689.35 477.541C686.247 487.145 680.191 495.34 674.363 503.438C667.722 512.667 661.058 522.139 656.847 532.759C653.872 540.26 651.733 548.072 650.574 556.06C647.866 574.738 650.864 593.869 657.861 611.311C661.096 619.375 665.239 626.897 669.665 634.353C673.014 639.994 676.511 645.501 680.422 650.775C685.623 657.788 691.381 664.329 697.484 670.566C697.904 671.123 698.937 671.052 699.793 670.406C700.649 669.76 701.007 668.787 700.587 668.231C692.638 660.108 685.33 651.43 679.001 641.98C676.905 638.851 674.833 635.662 673.022 632.358C669.691 626.281 667.025 619.716 664.808 613.16C656.041 587.24 655.779 559.183 668.177 534.354C670.865 528.971 674.018 523.718 677.579 518.866C680.561 514.803 683.916 511.014 687.081 507.095C693.62 499.001 700.016 490.585 704.271 481.024C706.913 475.087 708.551 468.872 709.275 462.421C708.685 460.014 705.926 458.505 702.502 458.41Z" fill="#90c039" stroke="none"/>
</g>
<g opacity="1">
<path d="M700.721 488.754C699.036 488.774 697.183 489.18 695.359 490.007C690.497 492.21 687.717 496.562 689.15 499.722C692.589 511.602 696.632 523.289 701.171 534.794C702.514 538.2 704.016 541.536 705.428 544.913C706.955 548.567 708.153 552.345 709.634 556.018C713.899 566.594 717.792 577.249 720.448 588.357C724.397 604.875 725.391 623.748 718.547 639.679C717.341 642.484 715.845 645.2 714.25 647.8C709.557 655.452 703.538 662.049 696.868 668.011C696.592 668.401 696.854 669.061 697.454 669.485C698.054 669.91 698.76 669.938 699.036 669.548C705.562 663.715 711.511 657.301 716.282 649.935C723.13 639.361 727.742 627.197 729.515 614.727C731.386 601.566 730.367 588.121 728.2 575.062C727.224 569.18 726.023 563.346 724.734 557.526C723.861 553.584 723.021 549.629 721.956 545.733C721.336 543.461 720.555 541.233 719.93 538.96C718.848 535.03 717.926 531.066 716.788 527.15C713.365 515.363 709.704 503.664 706.754 491.743C705.859 489.767 703.529 488.721 700.721 488.754Z" fill="#90c039" stroke="none"/>
</g>
<g opacity="1">
<path d="M777.556 208.252C771.383 208.355 765.174 209.148 758.867 210.429C754.456 211.324 750.102 212.345 745.798 213.676C736.73 216.481 727.984 220.263 719.65 224.799C713.134 228.345 706.857 232.334 700.863 236.704C689.141 245.249 678.152 255.312 669.168 266.731C666.915 269.594 664.894 272.635 662.878 275.667C660.43 279.349 658.087 283.076 656.069 287.015C648.871 301.067 645.335 316.486 647.025 332.268C648.232 335.472 653.208 336.565 658.138 334.709C663.068 332.852 666.085 328.752 664.878 325.547C662.932 311.85 665.719 298.984 671.149 286.428C672.594 283.086 674.116 279.75 675.942 276.596C677.159 274.495 678.523 272.503 679.86 270.478C683.991 264.221 688.53 258.287 693.648 252.801C697.955 248.184 702.604 243.876 707.48 239.869C717.325 231.777 728.258 224.947 739.904 219.766C745.87 217.111 752.107 214.806 758.471 213.305C771.806 210.159 786.021 210.317 799.078 214.547C799.587 214.954 800.506 214.65 801.132 213.867C801.758 213.084 801.856 212.117 801.347 211.71C793.377 209.129 785.493 208.12 777.556 208.252Z" fill="#90c039" stroke="none"/>
</g>
<g opacity="1">
<path d="M800.182 212.232C799.251 212.256 798.51 212.768 798.526 213.373C793.888 224.686 787.803 235.495 780.584 245.368C774.655 253.478 767.61 260.928 760.43 267.935C750.195 277.924 739.043 287.112 727.071 294.952C722.095 298.21 716.986 301.185 711.788 304.069C708.997 305.617 706.23 307.235 703.357 308.63C689.816 315.203 675.408 320.517 660.506 322.873C657.892 322.331 655.1 325.148 654.265 329.169C653.431 333.19 654.871 336.89 657.485 337.433C686.147 332.063 711.745 317.762 734.183 299.573C751.556 285.49 767.228 269.247 780.13 250.954C783.53 246.133 786.937 241.296 790.059 236.288C794.632 228.95 798.618 221.285 801.899 213.285C801.883 212.68 801.114 212.207 800.182 212.232Z" fill="#90c039" stroke="none"/>
</g>
<g opacity="1">
<path d="M170.098 379.273C153.338 379.602 136.629 382.155 120.73 387.565C88.4189 398.559 59.3743 419.714 39.6056 447.607C32.4893 457.648 26.7968 468.491 22.2015 479.892C20.2216 484.804 18.3005 489.709 16.7325 494.772C13.7504 504.404 11.821 514.279 10.6887 524.29C10.8398 524.931 11.763 525.26 12.7491 525.027C13.7352 524.795 14.4112 524.091 14.2601 523.45C15.9356 508.636 19.3846 493.475 25.5745 479.851C28.8308 472.684 32.8553 465.813 37.2857 459.313C54.7821 433.645 79.5745 414.493 108.632 403.606C112.938 401.992 117.389 400.738 121.829 399.551C135.507 395.895 149.474 394.077 163.632 394.153C166.303 395.314 169.915 392.921 171.701 388.812C173.486 384.703 172.769 380.433 170.098 379.273Z" fill="#90c039" stroke="none"/>
</g>
<g opacity="1">
<path d="M105.757 398.019C103.843 398.075 101.693 398.68 99.6478 399.856C94.9732 402.542 92.6011 407.183 94.347 410.221C96.7836 414.615 98.7531 419.188 99.8359 424.111C100.458 426.939 100.753 429.814 100.74 432.709C100.719 437.64 99.9141 442.793 98.2276 447.439C97.2494 450.134 95.856 452.689 94.507 455.212C88.4445 466.553 79.1666 475.912 69.479 484.209C66.662 486.622 63.7799 488.952 60.8497 491.226C56.9325 494.266 52.9342 497.197 48.8718 500.04C43.5086 503.792 38.0347 507.284 32.4052 510.621C25.5484 514.685 18.6173 518.629 11.8139 522.783C11.4242 523.02 11.406 523.696 11.7699 524.295C12.1338 524.895 12.7444 525.192 13.1341 524.955C20.8968 520.216 28.8132 515.739 36.6178 511.069C42.9329 507.291 49.3599 503.7 55.6529 499.883C60.6513 496.852 65.5725 493.695 70.3752 490.362C74.1671 487.73 77.8857 484.99 81.505 482.125C88.687 476.439 95.4822 470.185 101.392 463.174C103.869 460.235 106.26 457.183 108.269 453.9C109.562 451.787 110.68 449.556 111.766 447.331C115.014 440.676 117.21 433.706 117.447 426.256C117.563 422.584 117.26 418.896 116.559 415.29C115.55 410.1 113.616 405.215 111.274 400.496C110.292 398.787 108.218 397.948 105.757 398.019Z" fill="#90c039" stroke="none"/>
</g>
<g opacity="1">
<path d="M299.486 632.954C292.047 635.169 285.062 638.134 278.209 641.762C272.729 644.663 267.385 647.651 262.39 651.351C251.374 659.509 241.892 670.107 235.327 682.168C234.07 684.476 233.154 686.925 232.136 689.343C230.74 692.659 229.52 695.973 228.668 699.475C226.956 706.52 226.501 713.786 226.831 721.01C227.953 724.222 232.872 725.427 237.815 723.7C242.757 721.973 245.853 717.969 244.73 714.756C243.954 707.553 244.227 700.422 245.334 693.27C245.599 691.559 245.802 689.821 246.178 688.129C246.558 686.419 247.208 684.801 247.744 683.139C248.899 679.555 250.173 676.062 251.917 672.715C257.885 661.259 267.476 651.564 278.327 644.655C280.252 643.429 282.335 642.413 284.393 641.43C289.254 639.108 294.293 637.267 299.452 635.731C299.95 635.738 300.361 635.12 300.371 634.353C300.381 633.586 299.985 632.96 299.486 632.954Z" fill="#90c039" stroke="none"/>
</g>
<g opacity="1">
<path d="M301.629 634.154C301.297 634.135 300.928 634.189 300.558 634.326C299.571 634.691 298.963 635.508 299.201 636.149C299.643 640.09 299.816 644.066 299.259 648.006C298.971 650.044 298.528 651.996 297.631 653.855C296.854 655.467 295.91 656.997 294.776 658.383C291.881 661.921 287.865 664.315 283.558 665.743C282.218 666.187 280.832 666.481 279.467 666.838C276.015 667.74 272.512 668.056 268.992 668.579C267.855 668.747 266.736 669.027 265.599 669.198C262.736 669.629 259.876 669.872 257.03 670.444C252.069 671.441 247.235 672.824 242.51 674.631C240.188 675.079 238.864 678.337 239.553 681.91C240.242 685.483 242.682 688.017 245.005 687.57C249.6 685.476 254.414 684.08 259.202 682.511C262.081 681.568 264.943 680.593 267.826 679.661C272.633 678.108 277.282 675.99 281.845 673.847C288.987 670.492 295.952 665.676 299.59 658.454C301.298 655.063 302.292 650.977 302.821 647.23C303.403 643.107 303.237 638.95 302.774 634.826C302.626 634.425 302.181 634.187 301.629 634.154Z" fill="#90c039" stroke="none"/>
</g>
<g opacity="1">
<path d="M555.071 767.104C550.475 767.089 546.741 769.498 546.731 772.485C544.455 777.983 542.169 783.492 540.293 789.143C539.248 792.289 538.514 795.47 537.725 798.684C537.286 800.471 536.707 802.212 536.364 804.023C534.317 814.837 533.707 826.656 535.908 837.482C537.273 844.196 540.018 850.316 542.953 856.462C545.551 861.903 548.95 866.863 552.828 871.467C553.231 872.038 554.271 872.001 555.15 871.381C556.03 870.762 556.416 869.795 556.013 869.223C552.698 865.29 549.747 861.101 547.354 856.541C546.518 854.946 545.649 853.3 545.055 851.595C543.793 847.971 543.158 844.016 542.805 840.208C541.943 830.901 543.249 821.521 545.997 812.613C547.166 808.822 548.712 805.209 550.145 801.517C550.66 800.192 551.085 798.838 551.651 797.533C553.106 794.177 554.779 790.897 556.314 787.575C558.638 782.548 560.975 777.532 563.376 772.541C563.385 769.554 559.668 767.118 555.071 767.104Z" fill="#90c039" stroke="none"/>
</g>
<g opacity="1">
<path d="M98.4098 401.586C97.4414 401.59 96.587 401.893 95.9852 402.523C90.4265 407.065 85.071 411.908 80.3438 417.325C78.9363 418.938 77.68 420.662 76.35 422.337C75.4561 423.463 74.4887 424.531 73.6241 425.679C71.3037 428.761 69.2585 432.083 67.2165 435.353C63 442.105 59.1551 449.104 55.8785 456.362C54.2076 460.064 52.7487 463.839 51.2846 467.624C50.2973 470.177 49.1133 472.654 48.1134 475.205C46.636 478.973 45.344 482.803 44.1766 486.678C44.2439 487.302 45.0772 487.724 46.0364 487.621C46.9956 487.517 47.7192 486.927 47.6519 486.304C48.9878 481.868 50.4957 477.499 52.2457 473.209C53.0056 471.347 53.7493 469.44 54.6893 467.66C56.8164 463.631 59.29 459.758 61.8299 455.979C68.0571 446.716 75.1909 438.248 83.2218 430.504C84.4064 429.362 85.4873 428.12 86.6862 426.993C88.3496 425.43 90.1405 423.997 91.8502 422.484C96.2075 418.628 100.658 414.915 105.347 411.463C106.951 409.783 106.156 406.42 103.571 403.951C101.956 402.408 100.024 401.58 98.4098 401.586Z" fill="#90c039" stroke="none"/>
</g>
<g opacity="1">
<path d="M733.164 262.654C726.209 265.015 719.941 268.545 713.51 272.031C703.926 277.227 695.012 283.554 686.62 290.494C683.534 293.047 680.341 295.593 677.545 298.462C676.552 299.481 675.626 300.567 674.629 301.583C673.118 303.121 671.607 304.625 670.209 306.268C665.947 311.273 662.325 316.764 659.251 322.567C659.135 325.504 662.704 328.029 667.224 328.208C671.743 328.387 675.499 326.151 675.616 323.214C677.723 318.523 680.33 314.147 683.091 309.815C684.651 307.368 686.148 304.977 687.917 302.676C690.145 299.775 692.16 296.746 694.529 293.95C699.037 288.631 703.977 283.694 709.287 279.176C712.103 276.781 715.015 274.362 718.165 272.413C722.896 269.485 728.06 267.156 733.322 265.372C733.809 265.344 734.169 264.713 734.126 263.963C734.083 263.212 733.652 262.626 733.164 262.654Z" fill="#90c039" stroke="none"/>
</g>
<g opacity="1">
<path d="M696.642 497.114C692.932 497.355 690.022 499.283 689.851 501.818C686.546 508.489 683.716 515.425 682.019 522.692C681.266 525.913 680.928 529.138 680.596 532.421C680.436 534.006 680.177 535.59 680.089 537.181C679.816 542.06 680.332 547.059 680.887 551.902C682.448 565.519 686.405 578.591 689.639 591.861C690.31 594.618 690.658 597.474 691.102 600.276C691.899 605.309 692.575 610.359 693.148 615.422C693.386 616.064 694.379 616.284 695.366 615.919C696.352 615.553 696.959 614.738 696.721 614.097C696.145 609.006 695.465 603.929 694.664 598.868C694.28 596.445 693.805 594.028 693.465 591.599C692.743 586.428 692.498 581.142 692.099 575.938C691.37 566.442 690.933 556.861 691.811 547.358C692.194 543.222 692.939 539.174 693.805 535.117C694.192 533.302 694.444 531.461 694.918 529.666C695.41 527.798 696.091 525.982 696.713 524.155C699.223 516.788 702.19 509.712 705.991 502.909C706.186 500.011 702.735 497.419 698.278 497.118C697.721 497.08 697.173 497.08 696.642 497.114Z" fill="#90c039" stroke="none"/>
</g>
<g opacity="1">
<path d="M559.662 771.423C557.24 771.407 554.317 772.904 552.066 775.562C548.791 779.428 548.173 784.288 550.686 786.417C557.155 788.564 560.656 792.834 563.632 798.764C564.177 799.849 564.734 800.939 565.137 802.088C565.884 804.221 566.243 806.561 566.741 808.767C568.435 816.267 568.204 824.216 567.284 831.803C566.489 838.359 565.29 845.114 563.127 851.372C561.956 854.759 560.267 858.072 558.589 861.225C557.224 863.789 555.68 866.285 553.81 868.513C553.633 868.999 554.093 869.616 554.84 869.889C555.587 870.163 556.339 869.988 556.516 869.502C561.039 864.104 563.673 857.604 566.544 851.257C568.377 847.205 570.255 843.197 571.844 839.038C573.218 835.439 574.441 831.785 575.514 828.086C577.424 821.506 578.909 814.789 579.597 807.965C579.843 805.522 580.109 803.042 579.999 800.583C579.93 799.033 579.658 797.494 579.478 795.955C579.254 794.046 579.053 792.146 578.56 790.284C577.15 784.954 574.099 779.978 569.771 776.526C567.577 774.776 565.134 773.479 562.546 772.416C561.761 771.75 560.763 771.431 559.662 771.423Z" fill="#90c039" stroke="none"/>
</g>
<g opacity="1">
<path d="M293.608 260.762C291.191 260.79 288.338 262.636 286.411 265.674C283.842 269.725 283.893 274.363 286.526 276.033C294.83 277.152 301.395 281.247 308.612 285.26C310.865 286.513 313.184 287.627 315.464 288.827C317.249 289.767 318.981 290.767 320.85 291.538C324.002 292.839 327.312 293.76 330.631 294.524C342.351 297.221 354.454 297.393 366.36 295.973C372.711 295.216 378.928 293.875 385.205 292.701C393.404 291.167 401.63 289.743 409.839 288.262C410.361 288.365 410.915 287.799 411.073 286.996C411.232 286.193 410.934 285.459 410.412 285.356C404.96 286.34 399.519 287.388 394.067 288.374C391.344 288.866 388.614 289.416 385.87 289.779C381.631 290.339 377.299 290.551 373.028 290.674C362.227 290.986 351.211 290.121 341.029 286.256C338.556 285.317 336.104 284.238 333.808 282.92C332.322 282.066 330.916 281.087 329.461 280.185C328.473 279.573 327.465 278.99 326.527 278.306C325.101 277.267 323.783 276.097 322.422 274.978C320.06 273.035 317.601 271.176 315.058 269.476C309.123 265.509 302.853 262.674 295.83 261.363C295.171 260.946 294.414 260.752 293.608 260.762Z" fill="#90c039" stroke="none"/>
</g>
<g opacity="1">
<path d="M336.284 257.449C335.16 257.459 334.034 257.486 332.91 257.482C330.708 257.473 328.516 257.427 326.317 257.594C316.568 258.332 306.939 261.108 298.559 266.185C296.653 267.437 296.669 270.827 298.595 273.759C300.52 276.69 303.624 278.052 305.53 276.801C309.784 273.935 314.737 272.469 319.689 271.32C322.639 270.635 325.641 269.969 328.638 269.523C330.25 269.282 331.869 269.224 333.491 269.086C337.436 268.75 341.348 268.367 345.312 268.292C356.582 268.08 367.967 269.414 378.912 272.092C382.588 272.991 386.324 273.99 389.845 275.393C391.631 276.105 393.349 277.047 395.034 277.966C400.067 280.709 404.781 284.052 408.54 288.412C408.945 288.982 409.984 288.938 410.86 288.315C411.736 287.691 412.121 286.723 411.715 286.153C408.068 281.924 403.554 278.597 398.711 275.852C396.648 274.682 394.499 273.701 392.393 272.619C390.583 271.689 388.796 270.726 386.955 269.858C379.856 266.512 372.459 263.945 364.876 261.942C356.664 259.772 348.138 258.124 339.654 257.525C338.53 257.446 337.407 257.439 336.284 257.449Z" fill="#90c039" stroke="none"/>
</g>
<path d="M868.514 426.241C854.011 426.241 842.255 437.998 842.255 452.5L842.255 575.307C842.255 589.809 854.011 601.566 868.514 601.566L998.298 601.566L998.298 426.241L868.514 426.241Z" fill="#90c039" fill-rule="nonzero" opacity="1" stroke="#90c039" stroke-linecap="butt" stroke-linejoin="round" stroke-width="5"/>
<path d="M985.209 400.191C985.209 398.56 986.531 397.238 988.163 397.238L1011.12 397.238C1012.75 397.238 1014.07 398.56 1014.07 400.191L1014.07 623.528C1014.07 625.159 1012.75 626.481 1011.12 626.481L988.163 626.481C986.531 626.481 985.209 625.159 985.209 623.528L985.209 400.191Z" fill="#90c039" fill-rule="nonzero" opacity="1" stroke="none"/>
<path d="M1052.23 442.604C1061.75 442.617 1069.46 450.347 1069.44 459.869L1069.44 459.869C1069.43 469.392 1061.7 477.101 1052.18 477.088L1015.54 477.036C1006.02 477.023 998.308 469.293 998.321 459.771L998.321 459.771C998.334 450.248 1006.06 442.539 1015.59 442.552L1052.23 442.604Z" fill="#90c039" fill-rule="nonzero" opacity="1" stroke="none"/>
<path d="M1052.2 551.871C1061.72 551.885 1069.43 559.614 1069.42 569.136L1069.42 569.136C1069.41 578.659 1061.68 586.369 1052.15 586.355L1015.52 586.304C1005.99 586.29 998.285 578.56 998.298 569.038L998.298 569.038C998.31 559.515 1006.04 551.806 1015.56 551.82L1052.2 551.871Z" fill="#90c039" fill-rule="nonzero" opacity="1" stroke="none"/>
<path d="M457.813 308.822C458.88 307.73 460.676 308.891 460.117 310.312L401.788 458.637C401.48 459.422 401.929 460.298 402.746 460.506L569.568 502.899C570.571 503.154 570.96 504.372 570.29 505.161L386.423 721.868C385.4 723.074 383.475 721.923 384.054 720.451L454.326 541.769C454.652 540.941 454.132 540.023 453.254 539.876L265.786 508.627C264.671 508.441 264.225 507.077 265.015 506.268L457.813 308.822Z" fill="#ffcc3b" fill-rule="nonzero" opacity="0.998733" stroke="none"/>
</g>
<clipPath id="ArtboardFrame">
<rect height="1080" width="1080" x="0" y="0"/>
</clipPath>
<g clip-path="url(#ArtboardFrame)" id="Capa-2">
<g opacity="1">
<path d="M515.83 48.4421C504.527 48.7234 493.211 49.9402 482.003 52.1092C455.69 57.2011 430.52 67.622 407.918 81.9769C386.465 95.6031 367.514 113.176 352.341 133.568C336.027 155.493 324.165 180.654 317.531 207.161C306.389 251.681 309.926 299.698 328.426 341.779C346.405 382.674 378.879 416.517 417.684 438.291C439.471 450.516 463.42 459.072 488.234 462.339C513.743 465.698 539.684 463.444 564.551 457.051C576.205 454.055 587.659 450.322 598.724 445.572C604.841 442.946 610.679 439.896 616.395 436.484C619.241 434.785 622.195 433.116 624.845 431.116C630.222 427.059 635.073 422.229 639.898 417.551C641.914 415.597 644.036 413.767 646.063 411.825C649.333 408.692 652.474 405.433 655.55 402.112C649.96 406.612 644.102 411.305 637.892 414.92C632.206 418.23 626.192 420.811 620.274 423.649C616.93 425.254 613.721 427.138 610.376 428.751C603.798 431.924 597.06 434.901 590.247 437.534C577.743 442.365 564.679 445.637 551.385 447.339C534.747 449.469 517.944 448.987 501.335 446.874C474.809 443.499 448.504 435.246 425.483 421.51C405.536 409.609 388.129 393.845 374.104 375.34C361.147 358.243 350.92 338.964 344.17 318.594C337.135 297.364 333.834 274.958 334.657 252.601C335.553 228.265 341.345 204.185 351.584 182.09C361.531 160.625 375.675 141.209 392.865 124.972C408.579 110.128 426.813 97.9759 446.781 89.6565C489.514 71.8523 538.964 70.8938 582.395 86.7999C602.189 94.049 620.637 104.751 636.803 118.275C652.967 131.799 666.797 148.07 677.499 166.226C689.554 186.677 697.209 209.29 700.75 232.724C701.953 240.593 709.303 246.005 717.172 244.801C725.041 243.598 730.452 236.235 729.249 228.366C725.067 201.324 716.074 175.237 702.079 151.677C689.062 129.766 672.079 110.18 652.162 94.2668C613.549 63.4169 564.813 47.2231 515.83 48.4421Z" fill="#90c039" stroke="none"/>
</g>
<path d="M717.026 235.032C717.026 272.437 822.1 254.997 822.1 254.997" fill="none" opacity="0.998733" stroke="#90c039" stroke-linecap="round" stroke-linejoin="round" stroke-width="30.0036"/>
<path d="M714.599 227.004C713.441 226.96 712.203 227.076 710.946 227.372C705.916 228.554 702.46 232.164 703.229 235.433C702.394 245.032 697.027 252.038 691.755 259.775C688.061 265.2 684.279 270.771 681.865 276.905C675.876 292.128 675.722 308.84 680.996 324.284C683.552 331.771 687.323 338.519 691.464 345.231C696.83 353.923 702.782 361.746 709.893 369.093C710.32 369.661 711.376 369.593 712.252 368.936C713.125 368.279 713.489 367.285 713.062 366.717C706.216 359.641 699.547 351.933 694.885 343.19C684.541 323.795 682.667 298.762 693.236 279.126C697.684 270.861 704.12 264.297 709.843 256.954C715.819 249.289 720.129 240.84 721.447 231.147C720.869 228.695 718.079 227.133 714.599 227.004Z" fill="#90c039" fill-rule="nonzero" opacity="1" stroke="none"/>
<path d="M715.556 240.777C713.837 240.805 711.943 241.23 710.086 242.084C705.132 244.362 702.32 248.821 703.8 252.038C706.293 260.003 709.056 267.867 712.333 275.55C717.236 287.047 722.672 298.207 726.465 310.15C730.185 321.862 731.747 335.718 726.806 347.351C723.569 354.977 717.759 361.255 711.662 366.687C711.382 367.083 711.645 367.76 712.256 368.193C712.867 368.627 713.592 368.658 713.874 368.261C718.495 364.14 722.75 359.74 726.182 354.558C736.725 338.65 738.183 321.803 735.827 303.341C733.23 282.978 726.706 263.625 721.734 243.788C720.808 241.775 718.423 240.726 715.556 240.777Z" fill="#90c039" fill-rule="nonzero" opacity="1" stroke="none"/>
<path d="M769.165 48.8695C761.853 48.9291 754.536 50.2144 747.349 52.1983C739.725 54.3022 732.378 57.3777 725.433 61.1519C698.617 75.727 671.141 103.131 673.979 136.02C675.186 139.292 680.245 140.435 685.279 138.576C690.312 136.719 693.415 132.562 692.206 129.29C690.297 115.487 695.297 102.415 702.898 91.0792C719.595 66.1749 753.227 44.894 783.891 54.1154C784.414 54.5208 785.341 54.1971 785.965 53.3934C786.587 52.5896 786.67 51.6109 786.149 51.2053C780.534 49.5201 774.853 48.8233 769.165 48.8695Z" fill="#90c039" fill-rule="nonzero" opacity="1" stroke="none"/>
<path d="M777.253 55.8433C776.305 55.8644 775.547 56.3823 775.56 56.9986C772.518 64.3204 768.699 71.4644 763.944 77.8312C760.281 82.7375 755.883 87.1985 751.461 91.4164C741.258 101.144 730.008 108.853 717.606 115.471C708.025 120.587 697.434 124.418 686.685 126.104C684.025 125.587 681.224 128.482 680.426 132.575C679.631 136.668 681.14 140.407 683.799 140.926C719.179 133.725 747.278 107.629 766.94 78.5361C771.609 71.6278 775.788 64.6415 778.994 56.9241C778.981 56.3076 778.201 55.8225 777.253 55.8433Z" fill="#90c039" fill-rule="nonzero" opacity="1" stroke="none"/>
<path d="M340.761 165.001C328.51 165.384 316.321 167.101 304.679 171.058C281.482 178.946 260.27 193.696 245.803 213.588C234.662 228.905 227.635 247.358 225.25 266.089C225.396 266.742 226.329 267.085 227.335 266.858C228.34 266.63 229.034 265.916 228.885 265.263C230.14 255.404 232.431 245.632 236.598 236.563C240.159 228.813 245.299 221.632 250.934 215.261C271.967 191.482 302.94 179.993 334.29 180.179C337.014 181.342 340.669 178.883 342.456 174.691C344.243 170.5 343.486 166.163 340.761 165.001Z" fill="#90c039" fill-rule="nonzero" opacity="1" stroke="none"/>
<path d="M295.242 177.974C293.289 178.04 291.101 178.666 289.018 179.873C284.259 182.632 281.857 187.376 283.65 190.47C285.166 193.07 286.425 195.742 287.246 198.648C292.706 217.97 274.724 234.378 261.159 244.971C258.437 247.095 255.669 249.149 252.846 251.136C249.434 253.536 245.952 255.735 242.345 257.828C237.501 260.638 232.61 263.369 227.797 266.229C227.394 266.459 227.352 267.149 227.705 267.771C228.059 268.393 228.675 268.713 229.08 268.483C236 264.368 242.969 260.242 250.027 256.367C264.591 248.374 279.227 240.129 290.864 228.035C300.345 218.187 307.331 205.119 304.659 191.099C303.947 187.367 302.563 183.865 300.884 180.477C299.874 178.736 297.752 177.891 295.242 177.974Z" fill="#90c039" fill-rule="nonzero" opacity="1" stroke="none"/>
<path d="M418.992 318.193C395.347 319.007 368.529 328.313 356.126 349.979C353.534 354.508 351.861 359.407 350.655 364.464C350.909 367.924 355.427 370.411 360.749 370.024C366.072 369.634 370.183 366.518 369.93 363.058C372.65 344.154 383.521 328.922 402.414 323.038C407.507 321.452 412.965 321.099 418.257 320.921C418.745 321.053 419.308 320.548 419.511 319.795C419.713 319.042 419.482 318.326 418.992 318.193Z" fill="#90c039" fill-rule="nonzero" opacity="1" stroke="none"/>
<path d="M420.444 319.456C420.121 319.348 419.743 319.304 419.344 319.34C418.276 319.437 417.461 320.079 417.523 320.773C417.071 323.667 416.46 326.514 415.229 329.189C409.612 341.378 393.729 334.793 383.997 333.912C380.334 333.581 376.711 333.647 373.049 333.908C370.628 333.631 368.321 336.425 367.894 340.148C367.467 343.874 369.083 347.116 371.504 347.393C381.25 345.772 391.156 345.975 400.82 343.624C405.659 342.447 410.621 340.515 414.171 336.887C416.228 334.787 417.688 332.082 418.911 329.432C420.233 326.566 420.905 323.522 421.391 320.42C421.352 319.986 420.979 319.635 420.444 319.456Z" fill="#90c039" fill-rule="nonzero" opacity="1" stroke="none"/>
<path d="M583.259 443.891C580.088 447.333 579.332 451.796 581.57 453.856C585.144 461.249 588.897 468.591 594.301 474.85C598.732 479.979 603.907 484.75 609.798 488.149C613.731 490.417 617.831 491.69 622.165 492.858C627.081 494.181 631.703 495.178 636.824 495.348C637.532 495.435 638.215 494.624 638.349 493.535C638.48 492.445 638.014 491.489 637.306 491.403C632.66 491.25 627.481 490.865 623.165 488.957C620.114 487.607 617.237 485.36 614.8 483.145C606.678 475.772 602.264 465.727 598.584 455.619C596.844 450.843 594.885 446.131 593.054 441.388C590.814 439.326 586.431 440.447 583.259 443.891Z" fill="#90c039" fill-rule="nonzero" opacity="1" stroke="none"/>
<path d="M289.583 183.725C289.069 183.723 288.615 183.881 288.293 184.211C270.101 198.797 258.117 219.562 251.146 241.62C251.179 241.948 251.617 242.176 252.123 242.126C252.631 242.078 253.017 241.771 252.984 241.44C254.37 237.056 255.872 232.634 257.96 228.524C265.971 212.738 279.102 199.434 293.21 188.994C294.068 188.112 293.663 186.325 292.305 185.004C291.458 184.178 290.437 183.729 289.583 183.725Z" fill="#90c039" fill-rule="nonzero" opacity="1" stroke="none"/>
<path d="M404.528 325.96C404.377 325.924 404.237 325.948 404.143 326.037C402.534 326.932 402.044 327.325 400.237 327.83C397.816 328.504 395.252 328.509 392.766 328.672C385.338 329.161 377.857 330.1 374.699 337.919C374.697 339.681 376.897 341.114 379.611 341.118C382.325 341.12 384.527 339.694 384.528 337.928C385.474 334.008 389.541 332.895 393 331.708C397.105 330.3 401.331 329.17 405.141 327.073C405.327 326.893 405.255 326.516 404.98 326.232C404.841 326.089 404.678 325.995 404.528 325.96Z" fill="#90c039" fill-rule="nonzero" opacity="1" stroke="none"/>
<path d="M737.653 87.0977C728.423 90.2886 719.698 95.5205 711.868 101.315C701.895 108.696 692.909 117.272 686.909 128.233C686.815 129.774 688.661 131.143 691.035 131.288C693.409 131.432 695.408 130.3 695.502 128.758C698.198 123.2 701.661 118.051 705.517 113.235C714.128 102.483 724.557 93.0896 737.752 88.5344C738.01 88.5169 738.197 88.1818 738.168 87.7854C738.142 87.3868 737.912 87.0802 737.653 87.0977Z" fill="#90c039" fill-rule="nonzero" opacity="1" stroke="none"/>
<path d="M712.081 249.712C710.114 249.832 708.568 250.849 708.472 252.193C704.606 259.825 701.994 267.712 701.372 276.286C700.456 288.911 704.33 301.273 707.026 313.432C708.275 319.061 708.951 324.801 709.689 330.51C709.818 330.849 710.346 330.966 710.87 330.766C711.393 330.569 711.711 330.133 711.581 329.794C709.621 314.624 706.365 299.241 707.451 283.863C708.231 272.852 711.684 262.407 717.021 252.8C717.131 251.265 715.307 249.885 712.946 249.716C712.65 249.697 712.361 249.695 712.081 249.712Z" fill="#90c039" fill-rule="nonzero" opacity="1" stroke="none"/>
<path d="M591.829 448.323C591.673 448.469 591.541 448.692 591.475 448.957C591.338 449.489 591.507 449.991 591.852 450.08C599.295 452.697 605.759 457.489 611.667 462.6C617.132 467.325 622.061 472.452 626.411 478.221C628.477 480.963 630.359 483.845 631.659 487.044C632.222 488.431 632.82 490.014 632.218 491.459C631.619 492.5 632.434 494.089 634.036 495.006C635.637 495.927 637.421 495.828 638.019 494.788C642.575 480.552 628.702 469.941 618.53 462.907C616.6 461.573 615.01 460.526 613.021 459.286C610.359 457.631 607.622 456.14 604.895 454.603C600.792 452.287 596.812 449.728 592.345 448.155C592.172 448.111 591.988 448.177 591.829 448.323Z" fill="#90c039" fill-rule="nonzero" opacity="1" stroke="none"/>
<path d="M594.676 449.754C594.004 450.456 593.445 451.44 593.123 452.594C592.387 455.232 593.183 457.758 594.897 458.235C601.379 460.361 607.429 464.78 611.437 470.284C612.847 472.22 613.79 474.401 614.79 476.56C615.024 476.762 615.462 476.637 615.775 476.283C616.087 475.926 616.152 475.474 615.922 475.271C614.881 473.028 613.729 470.844 612.717 468.589C609.246 460.858 605.614 452.516 597.558 448.681C596.593 448.414 595.541 448.85 594.676 449.754Z" fill="#90c039" fill-rule="nonzero" opacity="1" stroke="none"/>
<path d="M661.109 445.608" fill="none" opacity="1" stroke="#250e5c" stroke-linecap="butt" stroke-linejoin="round" stroke-width="12"/>
<path d="M601.35 460.34" fill="none" opacity="1" stroke="#250e5c" stroke-linecap="butt" stroke-linejoin="round" stroke-width="12"/>
<path d="M428.561 90.5361C427.321 90.5339 425.845 91.4602 424.836 93.0064C423.491 95.0672 423.489 97.4455 424.827 98.3193C433.142 99.6377 439.478 105.259 446.858 108.86C449.237 110.018 451.917 110.903 454.473 111.571C471.973 116.139 490.06 111.074 507.34 107.841C507.605 107.892 507.883 107.601 507.959 107.191C508.036 106.784 507.883 106.411 507.615 106.363C492.145 109.256 475.718 113.016 460.333 107.546C452.592 104.793 447.079 98.9588 440.155 94.8525C436.861 92.9013 433.444 91.6048 429.697 90.858C429.362 90.639 428.975 90.5361 428.561 90.5361Z" fill="#90c039" fill-rule="nonzero" opacity="1" stroke="none"/>
<path d="M456.091 84.2332C447.309 84.2617 438.72 85.9524 431.41 90.1835C430.405 90.766 430.317 92.4939 431.215 94.0401C432.113 95.5862 433.657 96.368 434.662 95.7855C441.099 91.7427 449.195 90.7178 456.623 90.201C466.759 89.4936 476.94 90.3214 486.81 92.7742C494.927 94.7912 502.885 98.1726 508.601 104.478C508.811 104.765 509.339 104.738 509.784 104.414C510.226 104.092 510.414 103.597 510.206 103.308C504.58 97.1061 496.304 93.3787 488.597 90.4988C478.986 86.9072 467.379 84.196 456.091 84.2332Z" fill="#90c039" fill-rule="nonzero" opacity="1" stroke="none"/>
<path d="M440.689 90.2601C439.428 90.1944 437.921 91.2347 436.999 92.9319C435.862 95.019 436.042 97.3097 437.397 98.0478C452.67 98.7792 468.055 102.877 482.864 97.1871C483.107 97.1542 483.26 96.8257 483.21 96.4534C483.158 96.0811 482.919 95.8074 482.678 95.8402C479.811 96.944 476.835 97.947 473.734 98.0653C465.802 98.3675 458.384 94.6576 451.017 92.3187C447.934 91.3398 444.712 90.8624 441.512 90.4879C441.256 90.3477 440.98 90.2754 440.689 90.2601Z" fill="#90c039" fill-rule="nonzero" opacity="1" stroke="none"/>
<path d="M872.233 199.903C840.472 199.903 814.726 225.648 814.726 257.41L814.726 263.529C814.726 295.29 840.472 321.036 872.233 321.036L924.98 321.036L924.98 199.903L872.233 199.903Z" fill="#90c039" fill-rule="nonzero" opacity="1" stroke="#90c039" stroke-linecap="butt" stroke-linejoin="round" stroke-width="4"/>
<path d="M915.731 186.331C915.731 182.759 918.626 179.864 922.198 179.864L929.655 179.864C933.227 179.864 936.122 182.759 936.122 186.331L936.122 331.782C936.122 335.354 933.227 338.252 929.655 338.252L922.198 338.252C918.626 338.252 915.731 335.354 915.731 331.782L915.731 186.331Z" fill="#90c039" fill-rule="nonzero" opacity="1" stroke="none"/>
<path d="M963.351 211.207C969.93 211.216 975.256 216.558 975.247 223.136L975.247 223.136C975.238 229.715 969.897 235.041 963.318 235.032L936.891 234.997C930.312 234.986 924.986 229.647 924.995 223.068L924.995 223.068C925.004 216.488 930.345 211.161 936.924 211.17L963.351 211.207Z" fill="#90c039" fill-rule="nonzero" opacity="1" stroke="none"/>
<path d="M963.335 286.701C969.914 286.712 975.24 292.051 975.232 298.632L975.232 298.632C975.223 305.211 969.881 310.537 963.303 310.528L936.876 310.491C930.295 310.482 924.969 305.141 924.98 298.562L924.98 298.562C924.988 291.983 930.328 286.657 936.909 286.666L963.335 286.701Z" fill="#90c039" fill-rule="nonzero" opacity="1" stroke="none"/>
<path d="M535.895 125.988C538.251 123.627 542.152 126.2 540.906 129.297L504.416 220.038C503.722 221.765 504.714 223.706 506.52 224.155L618.738 252.042C620.959 252.594 621.815 255.297 620.315 257.024L500.778 394.793C498.512 397.406 494.331 394.85 495.621 391.64L539.651 282.164C540.382 280.341 539.237 278.311 537.301 277.994L411.45 257.48C408.984 257.079 408.01 254.057 409.773 252.29L535.895 125.988Z" fill="#ffcc3b" fill-rule="nonzero" opacity="0.998733" stroke="none"/>
<path d="M536.573 910.241L558.053 914.752L558.053 955.158L536.573 955.158L536.573 910.241Z" fill="#ffffff" fill-rule="nonzero" opacity="1" stroke="#250e5c" stroke-linecap="butt" stroke-linejoin="round" stroke-width="12"/>
<g opacity="1">
<path d="M335.797 880.741L357.276 880.741L357.276 917.862L335.797 917.862L335.797 880.741Z" fill="#ffffff" fill-rule="nonzero" opacity="1" stroke="#250e5c" stroke-linecap="butt" stroke-linejoin="round" stroke-width="12"/>
<path d="M290.551 775.494C291.868 773.122 294.366 771.653 297.08 771.653L345.411 771.653L398.954 771.653C401.736 771.653 404.289 773.199 405.575 775.667L454.707 869.818C457.303 874.791 453.693 880.741 448.085 880.741L244.75 880.741C239.056 880.741 235.455 874.625 238.223 869.645L290.551 775.494Z" fill="#ffffff" fill-rule="nonzero" opacity="1" stroke="#250e5c" stroke-linecap="butt" stroke-linejoin="round" stroke-width="12"/>
<path d="M276.216 804.148C276.465 803.73 276.914 803.474 277.403 803.474L416.293 803.474C416.79 803.474 417.247 803.741 417.493 804.174L436.701 838.012C437.225 838.934 436.559 840.077 435.499 840.077L257.206 840.077C256.133 840.077 255.47 838.908 256.019 837.986L276.216 804.148Z" fill="#ffffff" fill-rule="nonzero" opacity="1" stroke="#250e5c" stroke-linecap="butt" stroke-linejoin="round" stroke-width="12"/>
<path d="M326.621 771.653L345.93 771.653L367.197 771.653L388.046 880.741L304.416 880.741L326.621 771.653Z" fill="none" opacity="1" stroke="#250e5c" stroke-linecap="butt" stroke-linejoin="round" stroke-width="12"/>
</g>
<g opacity="1">
<path d="M494.334 608.779C488.44 608.737 482.54 608.827 476.665 609.117C469.181 609.492 463.408 615.862 463.784 623.346C464.16 630.83 470.53 636.603 478.013 636.227C489.589 635.6 501.284 635.895 512.857 636.317C531.973 637.015 551.054 638.606 570.024 641.061C594.088 644.173 617.976 648.699 641.42 654.976C658.073 659.434 674.565 664.656 690.404 671.498C718.356 683.574 744.347 700.05 767.533 719.763C786.567 735.947 804 754.334 818.45 774.749C827.605 787.684 835.521 801.463 839.536 816.899C841.155 823.122 842.161 829.516 842.481 835.939C843.869 863.795 832.177 890.322 816.314 912.618C807.464 925.058 797.275 936.377 785.247 945.821C765.251 961.521 742 972.776 718.279 981.632C677.297 996.931 634.035 1005.61 590.84 1011.84C580.647 1013.32 570.428 1014.61 560.2 1015.82C547.799 1017.29 535.414 1018.56 522.928 1019.04C493.915 1020.14 464.782 1018.64 435.909 1015.71C397.51 1011.82 359.415 1005.14 322.07 995.389C298.522 989.238 275.163 981.541 253.102 971.201C236.844 963.581 221.013 954.419 207.557 942.427C200.393 936.041 194.217 928.764 188.719 920.913C172.866 898.277 164.501 871.912 167.655 844.144C170.291 820.945 180.196 799.04 193.125 779.807C212.581 750.865 238.785 726.775 267.556 707.286C285.495 695.136 304.588 684.685 324.003 675.118C327.235 673.525 330.374 671.706 333.58 670.06C340.398 666.558 347.347 663.116 354.464 660.258C364.66 656.164 375.256 652.948 385.891 650.232C374.945 652.035 364.237 654.618 353.542 657.516C342.821 660.421 332.053 663.206 321.621 667.07C316.027 669.142 310.573 671.774 305.188 674.331C300.369 676.618 295.563 678.942 290.845 681.434C284.349 684.866 278.024 688.669 271.783 692.54C262.178 698.496 252.792 704.824 243.683 711.513C236.797 716.569 230.044 721.866 223.541 727.406C190.937 755.18 160.612 790.622 152.257 833.848C151.061 840.032 150.339 846.326 150.099 852.619C149.786 860.817 150.359 869.019 151.762 877.1C153.838 889.055 157.772 900.633 163.114 911.517C170.074 925.695 179.456 939.443 190.54 950.699C202.298 962.639 216.129 972.372 230.599 980.732C252.561 993.421 276.272 1003.02 300.377 1010.79C335.088 1021.98 370.964 1029.36 407.067 1034.32C428.631 1037.29 450.319 1039.36 472.056 1040.48C490.404 1041.44 508.816 1041.76 527.177 1041C542.777 1040.35 558.283 1038.57 573.778 1036.71C604.494 1033.02 635.111 1028.27 665.271 1021.33C687.017 1016.33 708.565 1010.22 729.429 1002.27C754.343 992.778 778.59 980.697 799.657 964.21C806.766 958.645 813.522 952.58 819.709 946.001C824.952 940.425 829.81 934.45 834.433 928.354C854.939 901.311 869.135 869.328 867.771 834.838C867.448 826.67 866.255 818.509 864.264 810.582C859.451 791.423 849.852 774.213 838.479 758.203C824.164 738.053 807.208 719.719 788.709 703.352C762.593 680.248 733.013 660.958 701.015 647.04C683.994 639.637 666.294 633.934 648.389 629.101C623.809 622.466 598.746 617.649 573.508 614.332C553.1 611.649 532.552 609.938 511.981 609.206C506.106 608.997 500.228 608.822 494.334 608.779Z" fill="#90c039" stroke="none"/>
</g>
<path d="M664.959 589.533C665.077 585.543 668.347 582.37 672.339 582.37L676.283 582.37C680.118 582.37 683.315 585.307 683.64 589.128L709.926 898.427C710.292 902.734 706.893 906.433 702.57 906.433L663.13 906.433C658.967 906.433 655.625 902.993 655.75 898.832L664.959 589.533Z" fill="#ffffff" fill-rule="nonzero" opacity="1" stroke="#250e5c" stroke-linecap="butt" stroke-linejoin="round" stroke-width="12"/>
<path d="M655.748 582.37C655.748 573.299 663.099 565.945 672.173 565.945C681.244 565.945 688.598 573.299 688.598 582.37C688.598 591.441 681.244 598.795 672.173 598.795C663.099 598.795 655.748 591.441 655.748 582.37Z" fill="#ffffff" fill-rule="nonzero" opacity="1" stroke="#250e5c" stroke-linecap="butt" stroke-linejoin="round" stroke-width="12"/>
<path d="M683.721 568.183C674.791 563.454 696.251 514.646 708.546 491.423C720.841 468.2 798.1 330.554 807.03 335.283C815.963 340.012 743.208 480.041 730.911 503.263C718.615 526.487 692.654 572.911 683.721 568.183Z" fill="#ffffff" fill-rule="nonzero" opacity="1" stroke="#250e5c" stroke-linecap="butt" stroke-linejoin="round" stroke-width="12"/>
<path d="M682.596 593.2C689.963 586.284 729.189 622.397 747.177 641.551C765.165 660.705 870.364 778.385 862.998 785.302C855.631 792.221 746.717 678.031 728.73 658.875C710.741 639.72 675.229 600.12 682.596 593.2Z" fill="#ffffff" fill-rule="nonzero" opacity="1" stroke="#250e5c" stroke-linecap="butt" stroke-linejoin="round" stroke-width="12"/>
<path d="M652.188 577.194C654.18 587.1 602.812 601.386 577.052 606.57C551.292 611.754 395.829 639.084 393.837 629.177C391.842 619.269 546.298 586.943 572.058 581.761C597.821 576.577 650.193 567.285 652.188 577.194Z" fill="#ffffff" fill-rule="nonzero" opacity="1" stroke="#250e5c" stroke-linecap="butt" stroke-linejoin="round" stroke-width="12"/>
<path d="M455.565 655.287C455.565 649.904 459.929 645.54 465.312 645.54L532.413 645.54C537.796 645.54 542.16 649.904 542.16 655.287L542.16 782.118C542.16 787.501 537.796 791.865 532.413 791.865L465.312 791.865C459.929 791.865 455.565 787.501 455.565 782.118L455.565 655.287Z" fill="#ffffff" fill-rule="nonzero" opacity="1" stroke="#250e5c" stroke-linecap="butt" stroke-linejoin="round" stroke-width="12"/>
<path d="M506.859 702.932C506.859 697.202 511.504 692.556 517.235 692.556L607.925 692.556C613.655 692.556 618.301 697.202 618.301 702.932L618.301 785.871C618.301 791.601 613.655 796.247 607.925 796.247L517.235 796.247C511.504 796.247 506.859 791.601 506.859 785.871L506.859 702.932Z" fill="#ffffff" fill-rule="nonzero" opacity="1" stroke="#250e5c" stroke-linecap="butt" stroke-linejoin="round" stroke-width="12"/>
<path d="M303.763 756.583C303.763 756.583 302.566 718.408 288.049 712.394C273.531 706.381 245.691 732.529 245.691 732.529C245.691 732.529 271.839 704.689 265.826 690.171C259.812 675.654 221.637 674.457 221.637 674.457C221.637 674.457 259.812 673.261 265.826 658.743C271.839 644.226 245.691 616.386 245.691 616.386C245.691 616.386 273.531 642.534 288.049 636.521C302.566 630.507 303.763 592.332 303.763 592.332C303.763 592.332 304.959 630.507 319.476 636.521C333.994 642.534 361.834 616.386 361.834 616.386C361.834 616.386 335.686 644.226 341.699 658.743C347.713 673.261 385.888 674.457 385.888 674.457C385.888 674.457 347.713 675.654 341.699 690.171C335.686 704.689 361.834 732.529 361.834 732.529C361.834 732.529 333.994 706.381 319.476 712.394C304.959 718.408 303.763 756.583 303.763 756.583Z" fill="#ffffff" fill-rule="nonzero" opacity="1" stroke="#250e5c" stroke-linecap="butt" stroke-linejoin="round" stroke-width="12"/>
<path d="M485.705 821.826L618.774 858.439C618.774 858.439 631.305 881.149 626.618 898.184C621.932 915.218 600.026 926.578 600.026 926.578L466.958 889.965C466.958 889.965 488.409 876.308 493.096 859.273C497.783 842.239 485.705 821.826 485.705 821.826Z" fill="#ffffff" fill-rule="nonzero" opacity="1" stroke="#250e5c" stroke-linecap="butt" stroke-linejoin="round" stroke-width="12"/>
<path d="M466.357 852.866L603.034 890.863" fill="none" opacity="1" stroke="#250e5c" stroke-linecap="round" stroke-linejoin="round" stroke-width="12"/>
<text fill="#250e5c" font-family="Helvetica" font-size="35" opacity="1" stroke="none" text-anchor="start" transform="matrix(1 0 0 1 524.688 711.041)" x="0" y="0">
<tspan textLength="25.2759" x="0" y="32.2007"><![CDATA[H]]></tspan>
<tspan font-size="24.2014" textLength="13.4597" x="25.2759" y="32.2007"><![CDATA[2]]></tspan>
</text>
<g opacity="1">
<path d="M419.335 419.856C418.002 419.917 416.659 420.177 415.338 420.656C408.706 423.113 402.85 427.284 397.548 431.902C387.642 440.531 378.3 451.978 374.417 464.701C373.173 468.777 372.518 473.063 372.749 477.33C373.177 485.239 376.803 493.398 383.268 498.199C383.987 498.733 384.733 499.216 385.501 499.665C383.944 501.808 382.457 503.996 381.084 506.254C377.035 512.914 373.754 520.465 375.425 528.394C378.527 543.111 392.742 551.207 406.924 554.055C405.417 557.961 404.017 561.93 402.782 565.928C401.927 568.695 400.899 571.454 400.274 574.286C399.919 575.893 399.73 577.564 399.513 579.195C399.404 580.009 399.226 580.815 399.216 581.636C399.185 584.131 399.988 586.693 400.375 589.143C400.794 591.799 400.785 594.557 401.058 597.237C401.804 594.718 402.438 592 403.65 589.658C404.756 587.518 406.397 585.612 407.406 583.433C407.876 582.416 408.159 581.254 408.553 580.203C408.957 579.127 409.437 578.066 409.819 576.984C410.707 574.465 411.382 571.888 412.427 569.421C414.58 564.342 417.344 559.586 420.628 555.191C422.663 555.132 424.698 555.011 426.713 554.726C436.071 553.407 446.769 549.239 448.595 538.756C448.932 536.823 448.991 534.777 448.78 532.827C448.137 526.887 444.11 522.072 437.752 521.911C436.371 521.877 434.991 522.112 433.671 522.505C427.264 524.411 421.472 530.192 417.18 535.24C412.589 534.379 408.088 532.812 404.047 530.706C401.666 529.465 397.525 526.99 396.91 523.899C396.977 523.683 397.027 523.44 397.094 523.244C397.333 522.55 397.631 521.88 397.957 521.223C399.251 518.607 400.911 516.188 402.642 513.845C405.124 510.485 407.874 507.287 410.793 504.239C416.586 503.961 422.368 503.06 427.961 501.63C432.82 500.388 437.643 498.735 442.046 496.307C450.296 491.757 457.127 483.532 454.132 473.534C453.739 472.222 453.176 470.966 452.486 469.784C451.598 468.263 450.486 466.835 449.206 465.624C448.064 464.545 446.789 463.617 445.393 462.892C436.446 458.246 426.222 462.793 418.479 467.729C413.648 470.809 409.126 474.394 404.87 478.264C404.352 478.22 403.83 478.205 403.314 478.141C402.275 478.013 401.24 477.839 400.229 477.565C399.995 477.501 399.748 477.438 399.507 477.358C399.466 477.269 399.411 477.188 399.384 477.094C399.356 476.997 399.278 476.702 399.311 476.798C399.373 476.979 399.243 475.903 399.255 475.673C399.285 475.118 399.369 474.579 399.49 474.038C400.129 471.198 401.516 468.545 403.051 466.095C406.725 460.229 411.66 455.038 417.085 450.762C419.351 448.975 421.822 447.121 424.58 446.171C431.625 443.618 435.267 435.835 432.714 428.79C430.64 423.066 425.113 419.589 419.335 419.856ZM398.813 477.038C398.825 477.004 398.898 477.049 398.998 477.128C398.941 477.099 398.878 477.082 398.824 477.05C398.82 477.047 398.811 477.044 398.813 477.038Z" fill="#90c039" stroke="none"/>
</g>
<path d="M518.924 515.326" fill="none" opacity="1" stroke="#90c039" stroke-linecap="butt" stroke-linejoin="round" stroke-width="30"/>
<g opacity="1">
<path d="M585.332 18.9909C585.831 19.5899 586.409 20.2598 586.661 21.013C586.88 21.6671 586.826 22.3357 586.813 23.0073C586.768 25.3052 586.693 26.9 585.202 28.8305C583.337 31.2443 580.295 33.2444 577.568 34.8754C576.604 32.7417 575.017 30.8503 573.166 29.3262C571.968 28.3401 570.699 27.4516 569.244 26.8932C566.331 25.7758 562.981 25.6245 559.92 26.0893C554.483 26.9146 549.303 30.5333 550.908 36.6692C552.302 41.9978 557.15 45.3828 562.419 45.876C558.973 47.6756 555.239 49.0058 551.463 49.8924C548.789 50.5202 546.037 50.9519 543.287 50.7469C540.696 50.5748 538.456 52.5363 538.284 55.1269C538.112 57.7174 540.073 59.9561 542.664 60.1282C548.006 60.451 553.383 59.255 558.416 57.537C562.37 56.1872 566.237 54.4182 569.722 52.1003C572.327 50.3677 574.81 48.262 576.523 45.6135C577.376 44.295 578.027 42.8475 578.345 41.3052C581.307 39.619 584.012 37.5139 586.094 34.7711C588 32.259 589.785 29.1224 590.152 25.9376C590.295 24.7041 590.152 23.1195 589.428 22.0517C588.528 20.7223 586.741 19.6834 585.332 18.9909ZM562.847 33.7763C565.34 33.7944 567.065 34.4575 568.918 36.3887C569.461 36.9545 569.887 37.5632 570.027 38.2346C569.225 38.4321 568.412 38.5828 567.587 38.6749C564.469 39.0229 559.228 38.6305 558.284 34.7613C558.163 34.266 560.819 33.8568 561.728 33.8057C562.118 33.7838 562.49 33.7738 562.847 33.7763Z" fill="#90c039" stroke="none"/>
</g>
<g opacity="1">
<path d="M297.424 296.292C295.472 296.285 293.525 296.451 291.614 296.857C284.494 298.369 278.715 303.696 278.657 311.304C278.6 318.819 281.305 327.279 286.674 332.734C286.102 337.566 286.303 342.601 287.098 347.312C287.516 349.791 288.173 352.236 289.263 354.51C291.733 359.664 296.549 363.772 302.506 363.463C303.955 363.388 305.609 363.016 306.883 362.29C307.904 361.709 308.71 360.762 309.592 360.005C310.319 359.38 311.061 358.791 311.77 358.144C310.918 358.512 310.045 358.932 309.147 359.179C308.083 359.472 306.995 359.412 305.915 359.556C304.558 359.736 303.245 360.045 301.86 359.998C298.5 359.885 296.373 357.397 295.126 354.495C292.728 348.918 292.027 342.529 292.878 336.444C296.075 337.233 299.461 336.522 302.372 333.817C303.495 332.775 304.428 331.533 305.16 330.19C306.823 327.137 307.706 323.085 306.097 319.825C303.473 314.507 296.336 315.087 292.512 318.581C291.242 319.741 290.251 321.152 289.456 322.68C288.39 320.375 287.995 318.043 287.678 315.201C287.504 313.642 287.196 311.739 287.646 310.197C288.672 306.682 292.812 305.684 295.979 305.541C302.491 305.247 309.577 307.41 315.51 310.093C317.88 311.153 320.66 310.089 321.719 307.719C322.779 305.349 321.717 302.568 319.347 301.509C314.234 299.247 308.786 297.576 303.253 296.76C301.331 296.476 299.376 296.298 297.424 296.292ZM299.16 323.518C299.185 323.516 299.212 323.52 299.238 323.518C299.245 324.248 299.078 324.947 298.779 325.631C298.022 327.358 296.62 329.066 294.87 328.719C295.644 326.675 296.976 323.761 299.16 323.518Z" fill="#90c039" stroke="none"/>
</g>
<g opacity="1">
<path d="M620.165 384.313C619.125 384.506 618.08 384.789 617.031 384.919C615.827 385.068 614.621 385.017 613.428 385.294C610.467 385.979 607.666 387.404 604.824 388.451C601.988 389.496 599.102 390.407 596.308 391.565C592.213 393.263 588.34 395.46 584.542 397.734C581.374 399.631 578.164 401.595 575.277 403.932C571.149 404.407 567.228 406.236 563.886 408.74C556.091 414.576 550.702 424.143 550.851 433.995C550.963 441.446 554.403 448.089 559.499 453.372C561.309 455.233 564.286 455.275 566.147 453.465C568.009 451.655 568.051 448.678 566.241 446.817C561.317 441.803 558.951 435.823 560.67 428.815C561.126 426.956 561.852 425.168 562.766 423.488C563.938 421.333 565.424 419.347 567.145 417.599C567.159 419.284 567.545 421.001 568.436 422.703C569.096 423.965 569.972 425.102 570.968 426.116C572.133 427.302 573.464 428.227 575.102 428.615C579.492 429.658 583.699 426.67 586.236 423.347C589.882 418.571 591.367 411.607 586.414 407.132C585.704 406.491 584.919 405.938 584.085 405.471C584.345 405.271 584.58 405.087 584.921 404.835C588.776 401.981 592.998 399.736 597.146 397.353C600.236 395.577 603.228 393.618 606.382 391.957C609.043 390.557 611.943 389.584 614.53 388.052C615.572 387.435 616.416 386.58 617.404 385.894C618.266 385.296 619.246 384.822 620.165 384.313ZM577.787 411.924C578.016 411.929 578.247 411.943 578.481 411.968C578.976 412.022 579.478 412.187 579.925 412.401C582.273 413.523 581.8 415.318 580.739 417.384C580.196 418.441 579.45 419.421 578.55 420.2C578.125 420.568 577.703 420.831 577.195 421.065C577.091 421.113 576.963 421.136 576.849 421.151C576.842 421.152 576.821 421.154 576.827 421.158C576.851 421.175 576.778 421.122 576.756 421.102C576.63 420.986 576.505 420.871 576.384 420.75C576.272 420.639 576.163 420.525 576.058 420.408C575.646 419.951 575.279 419.443 575.024 418.88C574.775 418.33 574.668 417.722 574.714 417.12C574.847 415.364 575.982 413.541 577.295 411.935C577.459 411.928 577.622 411.921 577.787 411.924Z" fill="#90c039" stroke="none"/>
</g>
<path d="M1237.1 760.768" fill="none" opacity="1" stroke="#90c039" stroke-linecap="butt" stroke-linejoin="round" stroke-width="10.3943"/>
</g>
</svg>
