<?xml version="1.0" encoding="UTF-8" standalone="no"?>
<!DOCTYPE svg PUBLIC "-//W3C//DTD SVG 1.1//EN" "http://www.w3.org/Graphics/SVG/1.1/DTD/svg11.dtd">
<!-- Created with Vectornator (http://vectornator.io/) -->
<svg height="1080.0px" stroke-miterlimit="10" style="fill-rule:nonzero;clip-rule:evenodd;stroke-linecap:round;stroke-linejoin:round;" version="1.1" viewBox="0 0 1080 1080" width="1080.0px" xml:space="preserve" xmlns="http://www.w3.org/2000/svg" xmlns:xlink="http://www.w3.org/1999/xlink">
<defs>
<radialGradient cx="0" cy="0" gradientTransform="matrix(-2.27456 724.418 -2697.61 -1.79943 540.402 349.093)" gradientUnits="userSpaceOnUse" id="RadialGradient" r="1">
<stop offset="0" stop-color="#ec5656"/>
<stop offset="0.25" stop-color="#e95859"/>
<stop offset="0.485417" stop-color="#af7593"/>
<stop offset="0.654167" stop-color="#7e8ec5"/>
<stop offset="0.766667" stop-color="#7692cd"/>
<stop offset="1" stop-color="#7095d3"/>
</radialGradient>
<linearGradient gradientTransform="matrix(698.25 -4.29639 15.999 552.392 190.936 646.063)" gradientUnits="userSpaceOnUse" id="LinearGradient" x1="0" x2="1" y1="0" y2="0">
<stop offset="0" stop-color="#303030" stop-opacity="0.545548"/>
<stop offset="0" stop-color="#303030" stop-opacity="0.550205"/>
<stop offset="0.34375" stop-color="#303030" stop-opacity="0.394491"/>
<stop offset="0.645833" stop-color="#303030" stop-opacity="0.174673"/>
<stop offset="1" stop-color="#303030" stop-opacity="0"/>
</linearGradient>
<linearGradient gradientTransform="matrix(701.931 0 0 555.305 189.104 991.349)" gradientUnits="userSpaceOnUse" id="LinearGradient_2" x1="0" x2="1" y1="0" y2="0">
<stop offset="0" stop-color="#223952"/>
<stop offset="0.502083" stop-color="#3b5378"/>
<stop offset="0.979167" stop-color="#4d6891"/>
</linearGradient>
<linearGradient gradientTransform="matrix(528.968 -216.726 807.052 418.472 293.191 324.898)" gradientUnits="userSpaceOnUse" id="LinearGradient_3" x1="0" x2="1" y1="0" y2="0">
<stop offset="0" stop-color="#cb4645"/>
<stop offset="0.504167" stop-color="#f15858"/>
<stop offset="1" stop-color="#fe605b"/>
</linearGradient>
<linearGradient gradientTransform="matrix(701.931 0 0 555.305 188.965 293.839)" gradientUnits="userSpaceOnUse" id="LinearGradient_4" x1="0" x2="1" y1="0" y2="0">
<stop offset="0" stop-color="#70292b"/>
<stop offset="1" stop-color="#cd4949"/>
</linearGradient>
<radialGradient cx="0" cy="0" gradientTransform="matrix(-2.27456 753.024 -2697.61 -1.87048 540.402 320.441)" gradientUnits="userSpaceOnUse" id="RadialGradient_2" r="1">
<stop offset="0" stop-color="#ec5656"/>
<stop offset="0.25" stop-color="#e95859"/>
<stop offset="0.485417" stop-color="#af7593"/>
<stop offset="0.654167" stop-color="#7e8ec5"/>
<stop offset="0.766667" stop-color="#7692cd"/>
<stop offset="1" stop-color="#7095d3"/>
</radialGradient>
<linearGradient gradientTransform="matrix(698.25 -4.46605 15.999 574.206 190.936 629.139)" gradientUnits="userSpaceOnUse" id="LinearGradient_5" x1="0" x2="1" y1="0" y2="0">
<stop offset="0" stop-color="#303030" stop-opacity="0.545548"/>
<stop offset="0" stop-color="#303030" stop-opacity="0.550205"/>
<stop offset="0.34375" stop-color="#303030" stop-opacity="0.394491"/>
<stop offset="0.645833" stop-color="#303030" stop-opacity="0.174673"/>
<stop offset="1" stop-color="#303030" stop-opacity="0"/>
</linearGradient>
<linearGradient gradientTransform="matrix(701.931 0 0 577.233 189.104 988.06)" gradientUnits="userSpaceOnUse" id="LinearGradient_6" x1="0" x2="1" y1="0" y2="0">
<stop offset="0" stop-color="#223952"/>
<stop offset="0.502083" stop-color="#3b5378"/>
<stop offset="0.979167" stop-color="#4d6891"/>
</linearGradient>
<linearGradient gradientTransform="matrix(528.968 -225.285 807.052 434.997 293.191 295.292)" gradientUnits="userSpaceOnUse" id="LinearGradient_7" x1="0" x2="1" y1="0" y2="0">
<stop offset="0" stop-color="#cb4645"/>
<stop offset="0.504167" stop-color="#f15858"/>
<stop offset="1" stop-color="#fe605b"/>
</linearGradient>
<linearGradient gradientTransform="matrix(701.931 0 0 577.233 188.965 263.006)" gradientUnits="userSpaceOnUse" id="LinearGradient_8" x1="0" x2="1" y1="0" y2="0">
<stop offset="0" stop-color="#70292b"/>
<stop offset="1" stop-color="#cd4949"/>
</linearGradient>
<linearGradient gradientTransform="matrix(63.1849 -50.2762 50.2762 63.1849 511.847 1011.99)" gradientUnits="userSpaceOnUse" id="LinearGradient_9" x1="0" x2="1" y1="0" y2="0">
<stop offset="0" stop-color="#203b67"/>
<stop offset="1" stop-color="#4d7ac2"/>
</linearGradient>
<linearGradient gradientTransform="matrix(63.1849 -50.2762 50.2762 63.1849 511.847 920.873)" gradientUnits="userSpaceOnUse" id="LinearGradient_10" x1="0" x2="1" y1="0" y2="0">
<stop offset="0" stop-color="#203b67"/>
<stop offset="1" stop-color="#4d7ac2"/>
</linearGradient>
<linearGradient gradientTransform="matrix(63.1849 -50.2762 50.2762 63.1849 511.847 829.759)" gradientUnits="userSpaceOnUse" id="LinearGradient_11" x1="0" x2="1" y1="0" y2="0">
<stop offset="0" stop-color="#203b67"/>
<stop offset="1" stop-color="#4d7ac2"/>
</linearGradient>
<linearGradient gradientTransform="matrix(63.1849 -50.2762 50.2762 63.1849 511.847 738.646)" gradientUnits="userSpaceOnUse" id="LinearGradient_12" x1="0" x2="1" y1="0" y2="0">
<stop offset="0" stop-color="#4d7ac2"/>
<stop offset="1" stop-color="#9b7da4"/>
</linearGradient>
<linearGradient gradientTransform="matrix(63.1849 -50.2762 50.2762 63.1849 511.847 647.532)" gradientUnits="userSpaceOnUse" id="LinearGradient_13" x1="0" x2="1" y1="0" y2="0">
<stop offset="0" stop-color="#9b7da4"/>
<stop offset="1" stop-color="#b56578"/>
</linearGradient>
<linearGradient gradientTransform="matrix(63.1849 -50.2762 50.2762 63.1849 511.847 556.418)" gradientUnits="userSpaceOnUse" id="LinearGradient_14" x1="0" x2="1" y1="0" y2="0">
<stop offset="0" stop-color="#b56578"/>
<stop offset="1" stop-color="#d75455"/>
</linearGradient>
<linearGradient gradientTransform="matrix(63.1849 -50.2762 50.2762 63.1849 511.847 465.305)" gradientUnits="userSpaceOnUse" id="LinearGradient_15" x1="0" x2="1" y1="0" y2="0">
<stop offset="0" stop-color="#993334"/>
<stop offset="1" stop-color="#ea5655"/>
</linearGradient>
<linearGradient gradientTransform="matrix(59.1085 -54.6923 54.6923 59.1085 594.395 1019.12)" gradientUnits="userSpaceOnUse" id="LinearGradient_16" x1="0" x2="1" y1="0" y2="0">
<stop offset="0" stop-color="#203b67"/>
<stop offset="1" stop-color="#4d7ac2"/>
</linearGradient>
<linearGradient gradientTransform="matrix(59.1085 -54.6923 54.6923 59.1085 594.395 928.007)" gradientUnits="userSpaceOnUse" id="LinearGradient_17" x1="0" x2="1" y1="0" y2="0">
<stop offset="0" stop-color="#203b67"/>
<stop offset="1" stop-color="#4d7ac2"/>
</linearGradient>
<linearGradient gradientTransform="matrix(59.1085 -54.6923 54.6923 59.1085 594.395 836.893)" gradientUnits="userSpaceOnUse" id="LinearGradient_18" x1="0" x2="1" y1="0" y2="0">
<stop offset="0" stop-color="#203b67"/>
<stop offset="1" stop-color="#4d7ac2"/>
</linearGradient>
<linearGradient gradientTransform="matrix(59.1085 -54.6923 54.6923 59.1085 594.395 745.779)" gradientUnits="userSpaceOnUse" id="LinearGradient_19" x1="0" x2="1" y1="0" y2="0">
<stop offset="0" stop-color="#4d7ac2"/>
<stop offset="1" stop-color="#9b7da4"/>
</linearGradient>
<linearGradient gradientTransform="matrix(59.1085 -54.6923 54.6923 59.1085 594.395 654.666)" gradientUnits="userSpaceOnUse" id="LinearGradient_20" x1="0" x2="1" y1="0" y2="0">
<stop offset="0" stop-color="#9b7da4"/>
<stop offset="1" stop-color="#b56578"/>
</linearGradient>
<linearGradient gradientTransform="matrix(59.1085 -54.6923 54.6923 59.1085 594.395 563.552)" gradientUnits="userSpaceOnUse" id="LinearGradient_21" x1="0" x2="1" y1="0" y2="0">
<stop offset="0" stop-color="#b56578"/>
<stop offset="1" stop-color="#d75455"/>
</linearGradient>
<linearGradient gradientTransform="matrix(59.1085 -54.6923 54.6923 59.1085 594.395 472.439)" gradientUnits="userSpaceOnUse" id="LinearGradient_22" x1="0" x2="1" y1="0" y2="0">
<stop offset="0" stop-color="#993334"/>
<stop offset="1" stop-color="#ea5655"/>
</linearGradient>
<linearGradient gradientTransform="matrix(63.7082 -71.1634 71.1634 63.7082 676.386 1006.23)" gradientUnits="userSpaceOnUse" id="LinearGradient_23" x1="0" x2="1" y1="0" y2="0">
<stop offset="0" stop-color="#203b67"/>
<stop offset="1" stop-color="#4d7ac2"/>
</linearGradient>
<linearGradient gradientTransform="matrix(63.7082 -71.1634 71.1634 63.7082 676.386 915.116)" gradientUnits="userSpaceOnUse" id="LinearGradient_24" x1="0" x2="1" y1="0" y2="0">
<stop offset="0" stop-color="#203b67"/>
<stop offset="1" stop-color="#4d7ac2"/>
</linearGradient>
<linearGradient gradientTransform="matrix(63.7082 -71.1634 71.1634 63.7082 676.386 824.002)" gradientUnits="userSpaceOnUse" id="LinearGradient_25" x1="0" x2="1" y1="0" y2="0">
<stop offset="0" stop-color="#203b67"/>
<stop offset="1" stop-color="#4d7ac2"/>
</linearGradient>
<linearGradient gradientTransform="matrix(63.7082 -71.1634 71.1634 63.7082 676.386 732.888)" gradientUnits="userSpaceOnUse" id="LinearGradient_26" x1="0" x2="1" y1="0" y2="0">
<stop offset="0" stop-color="#4d7ac2"/>
<stop offset="1" stop-color="#9b7da4"/>
</linearGradient>
<linearGradient gradientTransform="matrix(63.7082 -71.1634 71.1634 63.7082 676.386 641.775)" gradientUnits="userSpaceOnUse" id="LinearGradient_27" x1="0" x2="1" y1="0" y2="0">
<stop offset="0" stop-color="#9b7da4"/>
<stop offset="1" stop-color="#b56578"/>
</linearGradient>
<linearGradient gradientTransform="matrix(63.7082 -71.1634 71.1634 63.7082 676.386 550.661)" gradientUnits="userSpaceOnUse" id="LinearGradient_28" x1="0" x2="1" y1="0" y2="0">
<stop offset="0" stop-color="#b56578"/>
<stop offset="1" stop-color="#d75455"/>
</linearGradient>
<linearGradient gradientTransform="matrix(63.7082 -71.1634 71.1634 63.7082 676.386 459.548)" gradientUnits="userSpaceOnUse" id="LinearGradient_29" x1="0" x2="1" y1="0" y2="0">
<stop offset="0" stop-color="#993334"/>
<stop offset="1" stop-color="#ea5655"/>
</linearGradient>
<linearGradient gradientTransform="matrix(46.4256 -63.7082 63.7082 46.4256 766.865 966.92)" gradientUnits="userSpaceOnUse" id="LinearGradient_30" x1="0" x2="1" y1="0" y2="0">
<stop offset="0" stop-color="#203b67"/>
<stop offset="1" stop-color="#4d7ac2"/>
</linearGradient>
<linearGradient gradientTransform="matrix(46.4256 -63.7082 63.7082 46.4256 766.865 875.806)" gradientUnits="userSpaceOnUse" id="LinearGradient_31" x1="0" x2="1" y1="0" y2="0">
<stop offset="0" stop-color="#203b67"/>
<stop offset="1" stop-color="#4d7ac2"/>
</linearGradient>
<linearGradient gradientTransform="matrix(46.4256 -63.7082 63.7082 46.4256 766.865 784.693)" gradientUnits="userSpaceOnUse" id="LinearGradient_32" x1="0" x2="1" y1="0" y2="0">
<stop offset="0" stop-color="#203b67"/>
<stop offset="1" stop-color="#4d7ac2"/>
</linearGradient>
<linearGradient gradientTransform="matrix(46.4256 -63.7082 63.7082 46.4256 766.865 693.579)" gradientUnits="userSpaceOnUse" id="LinearGradient_33" x1="0" x2="1" y1="0" y2="0">
<stop offset="0" stop-color="#4d7ac2"/>
<stop offset="1" stop-color="#9b7da4"/>
</linearGradient>
<linearGradient gradientTransform="matrix(46.4256 -63.7082 63.7082 46.4256 766.865 602.466)" gradientUnits="userSpaceOnUse" id="LinearGradient_34" x1="0" x2="1" y1="0" y2="0">
<stop offset="0" stop-color="#9b7da4"/>
<stop offset="1" stop-color="#b56578"/>
</linearGradient>
<linearGradient gradientTransform="matrix(46.4256 -63.7082 63.7082 46.4256 766.865 511.352)" gradientUnits="userSpaceOnUse" id="LinearGradient_35" x1="0" x2="1" y1="0" y2="0">
<stop offset="0" stop-color="#b56578"/>
<stop offset="1" stop-color="#d75455"/>
</linearGradient>
<linearGradient gradientTransform="matrix(46.4256 -63.7082 63.7082 46.4256 766.865 420.238)" gradientUnits="userSpaceOnUse" id="LinearGradient_36" x1="0" x2="1" y1="0" y2="0">
<stop offset="0" stop-color="#993334"/>
<stop offset="1" stop-color="#ea5655"/>
</linearGradient>
<linearGradient gradientTransform="matrix(57.4099 -36.0086 36.0086 57.4099 428.62 989.906)" gradientUnits="userSpaceOnUse" id="LinearGradient_37" x1="0" x2="1" y1="0" y2="0">
<stop offset="0" stop-color="#203b67"/>
<stop offset="1" stop-color="#4d7ac2"/>
</linearGradient>
<linearGradient gradientTransform="matrix(57.4099 -36.0086 36.0086 57.4099 428.62 898.792)" gradientUnits="userSpaceOnUse" id="LinearGradient_38" x1="0" x2="1" y1="0" y2="0">
<stop offset="0" stop-color="#203b67"/>
<stop offset="1" stop-color="#4d7ac2"/>
</linearGradient>
<linearGradient gradientTransform="matrix(57.4099 -36.0086 36.0086 57.4099 428.62 807.678)" gradientUnits="userSpaceOnUse" id="LinearGradient_39" x1="0" x2="1" y1="0" y2="0">
<stop offset="0" stop-color="#203b67"/>
<stop offset="1" stop-color="#4d7ac2"/>
</linearGradient>
<linearGradient gradientTransform="matrix(57.4099 -36.0086 36.0086 57.4099 428.62 716.565)" gradientUnits="userSpaceOnUse" id="LinearGradient_40" x1="0" x2="1" y1="0" y2="0">
<stop offset="0" stop-color="#4d7ac2"/>
<stop offset="1" stop-color="#9b7da4"/>
</linearGradient>
<linearGradient gradientTransform="matrix(57.4099 -36.0086 36.0086 57.4099 428.62 625.451)" gradientUnits="userSpaceOnUse" id="LinearGradient_41" x1="0" x2="1" y1="0" y2="0">
<stop offset="0" stop-color="#9b7da4"/>
<stop offset="1" stop-color="#b56578"/>
</linearGradient>
<linearGradient gradientTransform="matrix(57.4099 -36.0086 36.0086 57.4099 428.62 534.338)" gradientUnits="userSpaceOnUse" id="LinearGradient_42" x1="0" x2="1" y1="0" y2="0">
<stop offset="0" stop-color="#b56578"/>
<stop offset="1" stop-color="#d75455"/>
</linearGradient>
<linearGradient gradientTransform="matrix(57.4099 -36.0086 36.0086 57.4099 428.62 443.224)" gradientUnits="userSpaceOnUse" id="LinearGradient_43" x1="0" x2="1" y1="0" y2="0">
<stop offset="0" stop-color="#993334"/>
<stop offset="1" stop-color="#ea5655"/>
</linearGradient>
<linearGradient gradientTransform="matrix(-63.4373 49.9573 -49.9573 -63.4373 565.775 161.802)" gradientUnits="userSpaceOnUse" id="LinearGradient_44" x1="0" x2="1" y1="0" y2="0">
<stop offset="0" stop-color="#993334"/>
<stop offset="1" stop-color="#ea5655"/>
</linearGradient>
<linearGradient gradientTransform="matrix(-59.3831 54.394 -54.394 -59.3831 483.264 154.253)" gradientUnits="userSpaceOnUse" id="LinearGradient_45" x1="0" x2="1" y1="0" y2="0">
<stop offset="0" stop-color="#993334"/>
<stop offset="1" stop-color="#ea5655"/>
</linearGradient>
<linearGradient gradientTransform="matrix(-57.5906 35.719 -35.719 -57.5906 648.89 184.302)" gradientUnits="userSpaceOnUse" id="LinearGradient_46" x1="0" x2="1" y1="0" y2="0">
<stop offset="0" stop-color="#993334"/>
<stop offset="1" stop-color="#ea5655"/>
</linearGradient>
<linearGradient gradientTransform="matrix(61.4864 -46.8791 46.8791 61.4864 337.24 971.222)" gradientUnits="userSpaceOnUse" id="LinearGradient_47" x1="0" x2="1" y1="0" y2="0">
<stop offset="0" stop-color="#203b67"/>
<stop offset="1" stop-color="#4d7ac2"/>
</linearGradient>
<linearGradient gradientTransform="matrix(61.4864 -46.8791 46.8791 61.4864 337.24 880.108)" gradientUnits="userSpaceOnUse" id="LinearGradient_48" x1="0" x2="1" y1="0" y2="0">
<stop offset="0" stop-color="#203b67"/>
<stop offset="1" stop-color="#4d7ac2"/>
</linearGradient>
<linearGradient gradientTransform="matrix(61.4864 -46.8791 46.8791 61.4864 337.24 788.995)" gradientUnits="userSpaceOnUse" id="LinearGradient_49" x1="0" x2="1" y1="0" y2="0">
<stop offset="0" stop-color="#203b67"/>
<stop offset="1" stop-color="#4d7ac2"/>
</linearGradient>
<linearGradient gradientTransform="matrix(61.4864 -46.8791 46.8791 61.4864 337.24 697.881)" gradientUnits="userSpaceOnUse" id="LinearGradient_50" x1="0" x2="1" y1="0" y2="0">
<stop offset="0" stop-color="#4d7ac2"/>
<stop offset="1" stop-color="#9b7da4"/>
</linearGradient>
<linearGradient gradientTransform="matrix(61.4864 -46.8791 46.8791 61.4864 337.24 606.767)" gradientUnits="userSpaceOnUse" id="LinearGradient_51" x1="0" x2="1" y1="0" y2="0">
<stop offset="0" stop-color="#9b7da4"/>
<stop offset="1" stop-color="#b56578"/>
</linearGradient>
<linearGradient gradientTransform="matrix(61.4864 -46.8791 46.8791 61.4864 337.24 515.654)" gradientUnits="userSpaceOnUse" id="LinearGradient_52" x1="0" x2="1" y1="0" y2="0">
<stop offset="0" stop-color="#b56578"/>
<stop offset="1" stop-color="#d75455"/>
</linearGradient>
<linearGradient gradientTransform="matrix(61.4864 -46.8791 46.8791 61.4864 337.24 424.54)" gradientUnits="userSpaceOnUse" id="LinearGradient_53" x1="0" x2="1" y1="0" y2="0">
<stop offset="0" stop-color="#993334"/>
<stop offset="1" stop-color="#ea5655"/>
</linearGradient>
<linearGradient gradientTransform="matrix(-63.4373 49.9573 -49.9573 -63.4373 569.147 70.9727)" gradientUnits="userSpaceOnUse" id="LinearGradient_54" x1="0" x2="1" y1="0" y2="0">
<stop offset="0" stop-color="#993334"/>
<stop offset="1" stop-color="#ea5655"/>
</linearGradient>
<linearGradient gradientTransform="matrix(-59.3831 54.394 -54.394 -59.3831 486.636 63.4233)" gradientUnits="userSpaceOnUse" id="LinearGradient_55" x1="0" x2="1" y1="0" y2="0">
<stop offset="0" stop-color="#993334"/>
<stop offset="1" stop-color="#ea5655"/>
</linearGradient>
<linearGradient gradientTransform="matrix(-64.0657 70.8416 -70.8416 -64.0657 404.582 75.9012)" gradientUnits="userSpaceOnUse" id="LinearGradient_56" x1="0" x2="1" y1="0" y2="0">
<stop offset="0" stop-color="#993334"/>
<stop offset="1" stop-color="#ea5655"/>
</linearGradient>
<linearGradient gradientTransform="matrix(-57.5906 35.719 -35.719 -57.5906 652.263 93.4723)" gradientUnits="userSpaceOnUse" id="LinearGradient_57" x1="0" x2="1" y1="0" y2="0">
<stop offset="0" stop-color="#993334"/>
<stop offset="1" stop-color="#ea5655"/>
</linearGradient>
<linearGradient gradientTransform="matrix(-61.7217 46.5689 -46.5689 -61.7217 743.548 112.616)" gradientUnits="userSpaceOnUse" id="LinearGradient_58" x1="0" x2="1" y1="0" y2="0">
<stop offset="0" stop-color="#993334"/>
<stop offset="1" stop-color="#ea5655"/>
</linearGradient>
<linearGradient gradientTransform="matrix(59.1085 -31.9322 31.9322 59.1085 259.787 915.85)" gradientUnits="userSpaceOnUse" id="LinearGradient_59" x1="0" x2="1" y1="0" y2="0">
<stop offset="0" stop-color="#203b67"/>
<stop offset="1" stop-color="#4d7ac2"/>
</linearGradient>
<linearGradient gradientTransform="matrix(59.1085 -31.9322 31.9322 59.1085 259.787 824.737)" gradientUnits="userSpaceOnUse" id="LinearGradient_60" x1="0" x2="1" y1="0" y2="0">
<stop offset="0" stop-color="#203b67"/>
<stop offset="1" stop-color="#4d7ac2"/>
</linearGradient>
<linearGradient gradientTransform="matrix(59.1085 -31.9322 31.9322 59.1085 259.787 733.623)" gradientUnits="userSpaceOnUse" id="LinearGradient_61" x1="0" x2="1" y1="0" y2="0">
<stop offset="0" stop-color="#203b67"/>
<stop offset="1" stop-color="#4d7ac2"/>
</linearGradient>
<linearGradient gradientTransform="matrix(59.1085 -31.9322 31.9322 59.1085 259.787 642.509)" gradientUnits="userSpaceOnUse" id="LinearGradient_62" x1="0" x2="1" y1="0" y2="0">
<stop offset="0" stop-color="#4d7ac2"/>
<stop offset="1" stop-color="#9b7da4"/>
</linearGradient>
<linearGradient gradientTransform="matrix(59.1085 -31.9322 31.9322 59.1085 259.787 551.396)" gradientUnits="userSpaceOnUse" id="LinearGradient_63" x1="0" x2="1" y1="0" y2="0">
<stop offset="0" stop-color="#9b7da4"/>
<stop offset="1" stop-color="#b56578"/>
</linearGradient>
<linearGradient gradientTransform="matrix(59.1085 -31.9322 31.9322 59.1085 259.787 460.282)" gradientUnits="userSpaceOnUse" id="LinearGradient_64" x1="0" x2="1" y1="0" y2="0">
<stop offset="0" stop-color="#b56578"/>
<stop offset="1" stop-color="#d75455"/>
</linearGradient>
<linearGradient gradientTransform="matrix(59.1085 -31.9322 31.9322 59.1085 259.787 369.169)" gradientUnits="userSpaceOnUse" id="LinearGradient_65" x1="0" x2="1" y1="0" y2="0">
<stop offset="0" stop-color="#993334"/>
<stop offset="1" stop-color="#ea5655"/>
</linearGradient>
<linearGradient gradientTransform="matrix(63.1849 -50.2762 50.2762 63.1849 511.847 374.191)" gradientUnits="userSpaceOnUse" id="LinearGradient_66" x1="0" x2="1" y1="0" y2="0">
<stop offset="0" stop-color="#993334"/>
<stop offset="1" stop-color="#ea5655"/>
</linearGradient>
<linearGradient gradientTransform="matrix(59.1085 -54.6923 54.6923 59.1085 594.395 381.325)" gradientUnits="userSpaceOnUse" id="LinearGradient_67" x1="0" x2="1" y1="0" y2="0">
<stop offset="0" stop-color="#993334"/>
<stop offset="1" stop-color="#ea5655"/>
</linearGradient>
<linearGradient gradientTransform="matrix(63.7082 -71.1634 71.1634 63.7082 676.386 368.434)" gradientUnits="userSpaceOnUse" id="LinearGradient_68" x1="0" x2="1" y1="0" y2="0">
<stop offset="0" stop-color="#993334"/>
<stop offset="1" stop-color="#ea5655"/>
</linearGradient>
<linearGradient gradientTransform="matrix(46.4256 -63.7082 63.7082 46.4256 766.865 329.125)" gradientUnits="userSpaceOnUse" id="LinearGradient_69" x1="0" x2="1" y1="0" y2="0">
<stop offset="0" stop-color="#993334"/>
<stop offset="1" stop-color="#ea5655"/>
</linearGradient>
<linearGradient gradientTransform="matrix(57.4099 -36.0086 36.0086 57.4099 428.62 352.11)" gradientUnits="userSpaceOnUse" id="LinearGradient_70" x1="0" x2="1" y1="0" y2="0">
<stop offset="0" stop-color="#993334"/>
<stop offset="1" stop-color="#ea5655"/>
</linearGradient>
<linearGradient gradientTransform="matrix(61.4864 -46.8791 46.8791 61.4864 337.24 333.427)" gradientUnits="userSpaceOnUse" id="LinearGradient_71" x1="0" x2="1" y1="0" y2="0">
<stop offset="0" stop-color="#993334"/>
<stop offset="1" stop-color="#ea5655"/>
</linearGradient>
<linearGradient gradientTransform="matrix(59.1085 -31.9322 31.9322 59.1085 259.787 278.055)" gradientUnits="userSpaceOnUse" id="LinearGradient_72" x1="0" x2="1" y1="0" y2="0">
<stop offset="0" stop-color="#993334"/>
<stop offset="1" stop-color="#ea5655"/>
</linearGradient>
<linearGradient gradientTransform="matrix(63.1849 -50.2762 50.2762 63.1849 511.847 289.047)" gradientUnits="userSpaceOnUse" id="LinearGradient_73" x1="0" x2="1" y1="0" y2="0">
<stop offset="0" stop-color="#993334"/>
<stop offset="1" stop-color="#ea5655"/>
</linearGradient>
<linearGradient gradientTransform="matrix(59.1085 -54.6923 54.6923 59.1085 594.395 296.181)" gradientUnits="userSpaceOnUse" id="LinearGradient_74" x1="0" x2="1" y1="0" y2="0">
<stop offset="0" stop-color="#993334"/>
<stop offset="1" stop-color="#ea5655"/>
</linearGradient>
<linearGradient gradientTransform="matrix(-64.0657 70.8416 -70.8416 -64.0657 401.21 166.731)" gradientUnits="userSpaceOnUse" id="LinearGradient_75" x1="0" x2="1" y1="0" y2="0">
<stop offset="0" stop-color="#993334"/>
<stop offset="1" stop-color="#ea5655"/>
</linearGradient>
<linearGradient gradientTransform="matrix(-46.7459 63.4736 -63.4736 -46.7459 313.906 114.754)" gradientUnits="userSpaceOnUse" id="LinearGradient_76" x1="0" x2="1" y1="0" y2="0">
<stop offset="0" stop-color="#993334"/>
<stop offset="1" stop-color="#ea5655"/>
</linearGradient>
<linearGradient gradientTransform="matrix(57.4099 -36.0086 36.0086 57.4099 428.62 266.967)" gradientUnits="userSpaceOnUse" id="LinearGradient_77" x1="0" x2="1" y1="0" y2="0">
<stop offset="0" stop-color="#993334"/>
<stop offset="1" stop-color="#ea5655"/>
</linearGradient>
<linearGradient gradientTransform="matrix(-61.7217 46.5689 -46.5689 -61.7217 740.176 203.446)" gradientUnits="userSpaceOnUse" id="LinearGradient_78" x1="0" x2="1" y1="0" y2="0">
<stop offset="0" stop-color="#993334"/>
<stop offset="1" stop-color="#ea5655"/>
</linearGradient>
<linearGradient gradientTransform="matrix(-59.2685 31.6341 -31.6341 -59.2685 820.72 168.377)" gradientUnits="userSpaceOnUse" id="LinearGradient_79" x1="0" x2="1" y1="0" y2="0">
<stop offset="0" stop-color="#993334"/>
<stop offset="1" stop-color="#ea5655"/>
</linearGradient>
</defs>
<g id="Capa-1">
<g opacity="1">
<path d="M189.104 214.789L189.104 620.851L189.104 834.573L189.104 912.772C189.103 1002.12 346.266 1074.64 540.123 1074.64C733.98 1074.64 891.141 1002.12 891.142 912.772L891.142 834.573L891.142 620.851L891.142 215.799C889.952 304.683 733.349 376.575 540.229 376.574C346.371 376.574 189.21 304.142 189.21 214.789L189.104 214.789Z" fill="url(#RadialGradient)" fill-rule="nonzero" opacity="1" stroke="none"/>
<path d="M188.858 214.789L188.858 620.851L188.858 834.573L188.858 912.772C188.858 1002.12 346.021 1074.64 539.877 1074.64C733.735 1074.64 890.896 1002.12 890.896 912.772L890.896 834.573L890.896 620.851L890.896 215.799C889.706 304.683 733.103 376.575 539.984 376.574C346.126 376.574 188.965 304.142 188.965 214.789L188.858 214.789Z" fill="url(#LinearGradient)" fill-rule="nonzero" opacity="1" stroke="none"/>
<path d="M189.636 908.058C189.536 909.643 189.104 911.176 189.104 912.772C189.103 1002.12 346.159 1074.64 540.016 1074.64C733.874 1074.64 891.035 1002.12 891.035 912.772C891.035 911.176 890.603 909.643 890.503 908.058C884.96 995.176 730.368 1065.05 540.016 1065.04C349.665 1065.04 195.178 995.176 189.636 908.058Z" fill="url(#LinearGradient_2)" fill-rule="nonzero" opacity="1" stroke="none"/>
<path d="M189.121 207.767C189.121 118.414 346.274 45.98 540.131 45.98C733.989 45.98 891.142 118.414 891.142 207.767C891.142 297.119 733.989 369.554 540.131 369.554C346.274 369.554 189.121 297.119 189.121 207.767Z" fill="url(#LinearGradient_3)" fill-rule="nonzero" opacity="1" stroke="none"/>
<path d="M189.497 210.547C189.397 212.132 188.965 213.665 188.965 215.261C188.964 304.614 346.02 377.13 539.877 377.13C733.735 377.13 890.896 304.614 890.896 215.261C890.896 213.665 890.464 212.132 890.364 210.547C884.821 297.665 730.229 367.535 539.877 367.534C349.526 367.534 195.039 297.665 189.497 210.547Z" fill="url(#LinearGradient_4)" fill-rule="nonzero" opacity="1" stroke="none"/>
</g>
<g opacity="1">
<path d="M189.104 180.835L189.104 602.932L189.104 825.093L189.104 906.38C189.103 999.26 346.266 1074.64 540.123 1074.64C733.98 1074.64 891.141 999.261 891.142 906.38L891.142 825.093L891.142 602.932L891.142 181.885C889.952 274.278 733.349 349.009 540.229 349.008C346.371 349.008 189.21 273.716 189.21 180.835L189.104 180.835Z" fill="url(#RadialGradient_2)" fill-rule="nonzero" opacity="1" stroke="#6e99dd" stroke-linecap="butt" stroke-linejoin="round" stroke-width="0.0384664"/>
<path d="M188.858 180.835L188.858 602.932L188.858 825.093L188.858 906.38C188.858 999.26 346.021 1074.64 539.877 1074.64C733.735 1074.64 890.896 999.261 890.896 906.38L890.896 825.093L890.896 602.932L890.896 181.885C889.706 274.278 733.103 349.009 539.984 349.008C346.126 349.008 188.965 273.716 188.965 180.835L188.858 180.835Z" fill="url(#LinearGradient_5)" fill-rule="nonzero" opacity="1" stroke="#6e99dd" stroke-linecap="butt" stroke-linejoin="round" stroke-width="0.0384664"/>
<path d="M189.636 901.48C189.536 903.127 189.104 904.721 189.104 906.38C189.103 999.261 346.159 1074.64 540.016 1074.64C733.874 1074.64 891.035 999.26 891.035 906.38C891.035 904.721 890.603 903.127 890.503 901.48C884.96 992.037 730.368 1064.67 540.016 1064.67C349.665 1064.67 195.178 992.038 189.636 901.48Z" fill="url(#LinearGradient_6)" fill-rule="nonzero" opacity="1" stroke="#6e99dd" stroke-linecap="butt" stroke-linejoin="round" stroke-width="0.0384664"/>
<path d="M189.121 173.535C189.121 80.654 346.274 5.35914 540.131 5.35914C733.989 5.35914 891.142 80.654 891.142 173.535C891.142 266.416 733.989 341.711 540.131 341.711C346.274 341.711 189.121 266.416 189.121 173.535Z" fill="url(#LinearGradient_7)" fill-rule="nonzero" opacity="1" stroke="#6e99dd" stroke-linecap="butt" stroke-linejoin="round" stroke-width="0.0384664"/>
<path d="M189.497 176.425C189.397 178.072 188.965 179.666 188.965 181.325C188.964 274.206 346.02 349.586 539.877 349.586C733.735 349.586 890.896 274.206 890.896 181.325C890.896 179.666 890.464 178.072 890.364 176.425C884.821 266.983 730.229 339.612 539.877 339.611C349.526 339.611 195.039 266.983 189.497 176.425Z" fill="url(#LinearGradient_8)" fill-rule="nonzero" opacity="1" stroke="#6e99dd" stroke-linecap="butt" stroke-linejoin="round" stroke-width="0.0384664"/>
</g>
<path d="M497.428 983.3C497.428 959.788 516.488 940.728 540 940.728C563.512 940.728 582.572 959.788 582.572 983.3C582.572 1006.81 563.512 1025.87 540 1025.87C516.488 1025.87 497.428 1006.81 497.428 983.3Z" fill="url(#LinearGradient_9)" fill-rule="nonzero" opacity="1" stroke="none"/>
<path d="M497.428 892.186C497.428 868.674 516.488 849.614 540 849.614C563.512 849.614 582.572 868.674 582.572 892.186C582.572 915.698 563.512 934.758 540 934.758C516.488 934.758 497.428 915.698 497.428 892.186Z" fill="url(#LinearGradient_10)" fill-rule="nonzero" opacity="1" stroke="none"/>
<path d="M497.428 801.073C497.428 777.561 516.488 758.501 540 758.501C563.512 758.501 582.572 777.561 582.572 801.073C582.572 824.584 563.512 843.644 540 843.644C516.488 843.644 497.428 824.584 497.428 801.073Z" fill="url(#LinearGradient_11)" fill-rule="nonzero" opacity="1" stroke="none"/>
<path d="M497.428 709.959C497.428 686.447 516.488 667.387 540 667.387C563.512 667.387 582.572 686.447 582.572 709.959C582.572 733.471 563.512 752.531 540 752.531C516.488 752.531 497.428 733.471 497.428 709.959Z" fill="url(#LinearGradient_12)" fill-rule="nonzero" opacity="1" stroke="none"/>
<path d="M497.428 618.845C497.428 595.334 516.488 576.273 540 576.273C563.512 576.273 582.572 595.334 582.572 618.845C582.572 642.357 563.512 661.417 540 661.417C516.488 661.417 497.428 642.357 497.428 618.845Z" fill="url(#LinearGradient_13)" fill-rule="nonzero" opacity="1" stroke="none"/>
<path d="M497.428 527.732C497.428 504.22 516.488 485.16 540 485.16C563.512 485.16 582.572 504.22 582.572 527.732C582.572 551.244 563.512 570.304 540 570.304C516.488 570.304 497.428 551.244 497.428 527.732Z" fill="url(#LinearGradient_14)" fill-rule="nonzero" opacity="1" stroke="none"/>
<path d="M497.428 436.618C497.428 413.106 516.488 394.046 540 394.046C563.512 394.046 582.572 413.106 582.572 436.618C582.572 460.13 563.512 479.19 540 479.19C516.488 479.19 497.428 460.13 497.428 436.618Z" fill="url(#LinearGradient_15)" fill-rule="nonzero" opacity="1" stroke="none"/>
<path d="M587.107 983.792C583.542 960.552 599.491 938.822 622.73 935.256C645.97 931.691 667.7 947.64 671.266 970.88C674.832 994.12 658.883 1015.85 635.643 1019.42C612.403 1022.98 590.673 1007.03 587.107 983.792Z" fill="url(#LinearGradient_16)" fill-rule="nonzero" opacity="1" stroke="none"/>
<path d="M587.107 892.679C583.542 869.439 599.491 847.709 622.73 844.143C645.97 840.577 667.7 856.526 671.266 879.766C674.832 903.006 658.883 924.736 635.643 928.302C612.403 931.868 590.673 915.918 587.107 892.679Z" fill="url(#LinearGradient_17)" fill-rule="nonzero" opacity="1" stroke="none"/>
<path d="M587.107 801.565C583.542 778.325 599.491 756.595 622.73 753.029C645.97 749.464 667.7 765.413 671.266 788.652C674.832 811.892 658.883 833.622 635.643 837.188C612.403 840.754 590.673 824.805 587.107 801.565Z" fill="url(#LinearGradient_18)" fill-rule="nonzero" opacity="1" stroke="none"/>
<path d="M587.107 710.451C583.542 687.212 599.491 665.481 622.73 661.916C645.97 658.35 667.7 674.299 671.266 697.539C674.832 720.779 658.883 742.509 635.643 746.075C612.403 749.64 590.673 733.691 587.107 710.451Z" fill="url(#LinearGradient_19)" fill-rule="nonzero" opacity="1" stroke="none"/>
<path d="M587.107 619.338C583.542 596.098 599.491 574.368 622.73 570.802C645.97 567.236 667.7 583.185 671.266 606.425C674.832 629.665 658.883 651.395 635.643 654.961C612.403 658.527 590.673 642.578 587.107 619.338Z" fill="url(#LinearGradient_20)" fill-rule="nonzero" opacity="1" stroke="none"/>
<path d="M587.107 528.224C583.542 504.984 599.491 483.254 622.73 479.688C645.97 476.123 667.7 492.072 671.266 515.312C674.832 538.551 658.883 560.282 635.643 563.847C612.403 567.413 590.673 551.464 587.107 528.224Z" fill="url(#LinearGradient_21)" fill-rule="nonzero" opacity="1" stroke="none"/>
<path d="M587.107 437.111C583.542 413.871 599.491 392.14 622.73 388.575C645.97 385.009 667.7 400.958 671.266 424.198C674.832 447.438 658.883 469.168 635.643 472.734C612.403 476.299 590.673 460.35 587.107 437.111Z" fill="url(#LinearGradient_22)" fill-rule="nonzero" opacity="1" stroke="none"/>
<path d="M677.549 965.842C670.815 943.315 683.617 919.594 706.143 912.86C728.67 906.125 752.391 918.927 759.126 941.453C765.86 963.98 753.058 987.701 730.532 994.436C708.005 1001.17 684.284 988.368 677.549 965.842Z" fill="url(#LinearGradient_23)" fill-rule="nonzero" opacity="1" stroke="none"/>
<path d="M677.549 874.728C670.815 852.202 683.617 828.481 706.143 821.746C728.67 815.011 752.391 827.813 759.126 850.34C765.86 872.866 753.058 896.587 730.532 903.322C708.005 910.057 684.284 897.255 677.549 874.728Z" fill="url(#LinearGradient_24)" fill-rule="nonzero" opacity="1" stroke="none"/>
<path d="M677.549 783.615C670.815 761.088 683.617 737.367 706.143 730.632C728.67 723.898 752.391 736.7 759.126 759.226C765.86 781.753 753.058 805.474 730.532 812.208C708.005 818.943 684.284 806.141 677.549 783.615Z" fill="url(#LinearGradient_25)" fill-rule="nonzero" opacity="1" stroke="none"/>
<path d="M677.549 692.501C670.815 669.974 683.617 646.253 706.143 639.519C728.67 632.784 752.391 645.586 759.126 668.113C765.86 690.639 753.058 714.36 730.532 721.095C708.005 727.83 684.284 715.028 677.549 692.501Z" fill="url(#LinearGradient_26)" fill-rule="nonzero" opacity="1" stroke="none"/>
<path d="M677.549 601.387C670.815 578.861 683.617 555.14 706.143 548.405C728.67 541.67 752.391 554.472 759.126 576.999C765.86 599.526 753.058 623.247 730.532 629.981C708.005 636.716 684.284 623.914 677.549 601.387Z" fill="url(#LinearGradient_27)" fill-rule="nonzero" opacity="1" stroke="none"/>
<path d="M677.549 510.274C670.815 487.747 683.617 464.026 706.143 457.291C728.67 450.557 752.391 463.359 759.126 485.885C765.86 508.412 753.058 532.133 730.532 538.868C708.005 545.602 684.284 532.8 677.549 510.274Z" fill="url(#LinearGradient_28)" fill-rule="nonzero" opacity="1" stroke="none"/>
<path d="M677.549 419.16C670.815 396.634 683.617 372.913 706.143 366.178C728.67 359.443 752.391 372.245 759.126 394.772C765.86 417.298 753.058 441.019 730.532 447.754C708.005 454.489 684.284 441.687 677.549 419.16Z" fill="url(#LinearGradient_29)" fill-rule="nonzero" opacity="1" stroke="none"/>
<path d="M771.715 935.953C756.069 918.403 757.613 891.492 775.164 875.846C792.714 860.201 819.625 861.745 835.271 879.295C850.916 896.846 849.372 923.756 831.822 939.402C814.272 955.048 787.361 953.504 771.715 935.953Z" fill="url(#LinearGradient_30)" fill-rule="nonzero" opacity="1" stroke="none"/>
<path d="M771.715 844.84C756.069 827.289 757.613 800.378 775.164 784.733C792.714 769.087 819.625 770.631 835.271 788.182C850.916 805.732 849.372 832.643 831.822 848.288C814.272 863.934 787.361 862.39 771.715 844.84Z" fill="url(#LinearGradient_31)" fill-rule="nonzero" opacity="1" stroke="none"/>
<path d="M771.715 753.726C756.069 736.176 757.613 709.265 775.164 693.619C792.714 677.973 819.625 679.517 835.271 697.068C850.916 714.618 849.372 741.529 831.822 757.175C814.272 772.82 787.361 771.276 771.715 753.726Z" fill="url(#LinearGradient_32)" fill-rule="nonzero" opacity="1" stroke="none"/>
<path d="M771.715 662.612C756.069 645.062 757.613 618.151 775.164 602.505C792.714 586.86 819.625 588.404 835.271 605.954C850.916 623.505 849.372 650.415 831.822 666.061C814.272 681.707 787.361 680.163 771.715 662.612Z" fill="url(#LinearGradient_33)" fill-rule="nonzero" opacity="1" stroke="none"/>
<path d="M771.715 571.499C756.069 553.948 757.613 527.038 775.164 511.392C792.714 495.746 819.625 497.29 835.271 514.841C850.916 532.391 849.372 559.302 831.822 574.948C814.272 590.593 787.361 589.049 771.715 571.499Z" fill="url(#LinearGradient_34)" fill-rule="nonzero" opacity="1" stroke="none"/>
<path d="M771.715 480.385C756.069 462.835 757.613 435.924 775.164 420.278C792.714 404.633 819.625 406.177 835.271 423.727C850.916 441.277 849.372 468.188 831.822 483.834C814.272 499.48 787.361 497.936 771.715 480.385Z" fill="url(#LinearGradient_35)" fill-rule="nonzero" opacity="1" stroke="#6e99dd" stroke-linecap="butt" stroke-linejoin="round" stroke-width="0.0384664"/>
<path d="M771.715 389.272C756.069 371.721 757.613 344.81 775.164 329.165C792.714 313.519 819.625 315.063 835.271 332.613C850.916 350.164 849.372 377.075 831.822 392.72C814.272 408.366 787.361 406.822 771.715 389.272Z" fill="url(#LinearGradient_36)" fill-rule="nonzero" opacity="1" stroke="none"/>
<path d="M406.61 977.33C406.61 953.818 425.671 934.758 449.182 934.758C472.694 934.758 491.754 953.818 491.754 977.33C491.754 1000.84 472.694 1019.9 449.182 1019.9C425.671 1019.9 406.61 1000.84 406.61 977.33Z" fill="url(#LinearGradient_37)" fill-rule="nonzero" opacity="1" stroke="none"/>
<path d="M406.61 886.216C406.61 862.705 425.671 843.644 449.182 843.644C472.694 843.644 491.754 862.705 491.754 886.216C491.754 909.728 472.694 928.788 449.182 928.788C425.671 928.788 406.61 909.728 406.61 886.216Z" fill="url(#LinearGradient_38)" fill-rule="nonzero" opacity="1" stroke="none"/>
<path d="M406.61 795.103C406.61 771.591 425.671 752.531 449.182 752.531C472.694 752.531 491.754 771.591 491.754 795.103C491.754 818.615 472.694 837.675 449.182 837.675C425.671 837.675 406.61 818.615 406.61 795.103Z" fill="url(#LinearGradient_39)" fill-rule="nonzero" opacity="1" stroke="none"/>
<path d="M406.61 703.989C406.61 680.477 425.671 661.417 449.182 661.417C472.694 661.417 491.754 680.477 491.754 703.989C491.754 727.501 472.694 746.561 449.182 746.561C425.671 746.561 406.61 727.501 406.61 703.989Z" fill="url(#LinearGradient_40)" fill-rule="nonzero" opacity="1" stroke="none"/>
<path d="M406.61 612.875C406.61 589.364 425.671 570.304 449.182 570.304C472.694 570.304 491.754 589.364 491.754 612.875C491.754 636.387 472.694 655.447 449.182 655.447C425.671 655.447 406.61 636.387 406.61 612.875Z" fill="url(#LinearGradient_41)" fill-rule="nonzero" opacity="1" stroke="none"/>
<path d="M406.61 521.762C406.61 498.25 425.671 479.19 449.182 479.19C472.694 479.19 491.754 498.25 491.754 521.762C491.754 545.274 472.694 564.334 449.182 564.334C425.671 564.334 406.61 545.274 406.61 521.762Z" fill="url(#LinearGradient_42)" fill-rule="nonzero" opacity="1" stroke="none"/>
<path d="M406.61 430.648C406.61 407.136 425.671 388.076 449.182 388.076C472.694 388.076 491.754 407.136 491.754 430.648C491.754 454.16 472.694 473.22 449.182 473.22C425.671 473.22 406.61 454.16 406.61 430.648Z" fill="url(#LinearGradient_43)" fill-rule="nonzero" opacity="1" stroke="none"/>
<g opacity="1">
<path d="M580.05 190.561C579.931 214.073 560.776 233.037 537.264 232.918C513.753 232.8 494.789 213.644 494.907 190.132C495.026 166.621 514.181 147.657 537.693 147.776C561.204 147.894 580.168 167.05 580.05 190.561Z" fill="url(#LinearGradient_44)" fill-rule="nonzero" opacity="1" stroke="none"/>
<path d="M490.374 189.617C493.823 212.875 477.765 234.524 454.507 237.973C431.25 241.422 409.6 225.363 406.151 202.106C402.703 178.848 418.761 157.199 442.019 153.75C465.276 150.301 486.926 166.36 490.374 189.617Z" fill="url(#LinearGradient_45)" fill-rule="nonzero" opacity="1" stroke="none"/>
<path d="M670.836 196.988C670.718 220.5 651.562 239.464 628.051 239.345C604.539 239.227 585.575 220.071 585.694 196.56C585.812 173.048 604.968 154.084 628.479 154.203C651.991 154.321 670.955 173.477 670.836 196.988Z" fill="url(#LinearGradient_46)" fill-rule="nonzero" opacity="1" stroke="none"/>
</g>
<path d="M316.62 953.636C316.62 930.125 335.68 911.065 359.192 911.065C382.704 911.065 401.764 930.125 401.764 953.636C401.764 977.148 382.704 996.208 359.192 996.208C335.68 996.208 316.62 977.148 316.62 953.636Z" fill="url(#LinearGradient_47)" fill-rule="nonzero" opacity="1" stroke="none"/>
<path d="M316.62 862.523C316.62 839.011 335.68 819.951 359.192 819.951C382.704 819.951 401.764 839.011 401.764 862.523C401.764 886.035 382.704 905.095 359.192 905.095C335.68 905.095 316.62 886.035 316.62 862.523Z" fill="url(#LinearGradient_48)" fill-rule="nonzero" opacity="1" stroke="none"/>
<path d="M316.62 771.409C316.62 747.897 335.68 728.837 359.192 728.837C382.704 728.837 401.764 747.897 401.764 771.409C401.764 794.921 382.704 813.981 359.192 813.981C335.68 813.981 316.62 794.921 316.62 771.409Z" fill="url(#LinearGradient_49)" fill-rule="nonzero" opacity="1" stroke="none"/>
<path d="M316.62 680.296C316.62 656.784 335.68 637.724 359.192 637.724C382.704 637.724 401.764 656.784 401.764 680.296C401.764 703.807 382.704 722.867 359.192 722.867C335.68 722.867 316.62 703.807 316.62 680.296Z" fill="url(#LinearGradient_50)" fill-rule="nonzero" opacity="1" stroke="none"/>
<path d="M316.62 589.182C316.62 565.67 335.68 546.61 359.192 546.61C382.704 546.61 401.764 565.67 401.764 589.182C401.764 612.694 382.704 631.754 359.192 631.754C335.68 631.754 316.62 612.694 316.62 589.182Z" fill="url(#LinearGradient_51)" fill-rule="nonzero" opacity="1" stroke="none"/>
<path d="M316.62 498.068C316.62 474.557 335.68 455.496 359.192 455.496C382.704 455.496 401.764 474.557 401.764 498.068C401.764 521.58 382.704 540.64 359.192 540.64C335.68 540.64 316.62 521.58 316.62 498.068Z" fill="url(#LinearGradient_52)" fill-rule="nonzero" opacity="1" stroke="none"/>
<path d="M316.62 406.955C316.62 383.443 335.68 364.383 359.192 364.383C382.704 364.383 401.764 383.443 401.764 406.955C401.764 430.467 382.704 449.527 359.192 449.527C335.68 449.527 316.62 430.467 316.62 406.955Z" fill="url(#LinearGradient_53)" fill-rule="nonzero" opacity="1" stroke="none"/>
<g opacity="1">
<path d="M583.422 99.7316C583.304 123.243 564.148 142.207 540.636 142.089C517.125 141.97 498.161 122.814 498.279 99.3028C498.398 75.7913 517.553 56.8275 541.065 56.9459C564.576 57.0643 583.54 76.2201 583.422 99.7316Z" fill="url(#LinearGradient_54)" fill-rule="nonzero" opacity="1" stroke="none"/>
<path d="M493.746 98.7876C497.195 122.045 481.137 143.695 457.879 147.143C434.622 150.592 412.972 134.534 409.524 111.276C406.075 88.0186 422.133 66.369 445.391 62.9204C468.648 59.4718 490.298 75.5301 493.746 98.7876Z" fill="url(#LinearGradient_55)" fill-rule="nonzero" opacity="1" stroke="none"/>
<path d="M403.215 116.282C409.836 138.843 396.915 162.499 374.355 169.12C351.794 175.741 328.138 162.82 321.517 140.26C314.896 117.699 327.817 94.0431 350.377 87.4219C372.938 80.8008 396.594 93.722 403.215 116.282Z" fill="url(#LinearGradient_56)" fill-rule="nonzero" opacity="1" stroke="none"/>
<path d="M674.208 106.159C674.09 129.67 654.934 148.634 631.423 148.516C607.911 148.397 588.947 129.241 589.066 105.73C589.184 82.2184 608.34 63.2546 631.851 63.373C655.363 63.4914 674.327 82.6472 674.208 106.159Z" fill="url(#LinearGradient_57)" fill-rule="nonzero" opacity="1" stroke="none"/>
<path d="M764.078 130.305C763.96 153.817 744.804 172.78 721.292 172.662C697.781 172.544 678.817 153.388 678.936 129.876C679.054 106.365 698.21 87.401 721.721 87.5194C745.233 87.6378 764.197 106.794 764.078 130.305Z" fill="url(#LinearGradient_58)" fill-rule="nonzero" opacity="1" stroke="none"/>
</g>
<path d="M234.615 907.625C234.615 884.113 253.675 865.053 277.187 865.053C300.699 865.053 319.759 884.113 319.759 907.625C319.759 931.136 300.699 950.197 277.187 950.197C253.675 950.197 234.615 931.136 234.615 907.625Z" fill="url(#LinearGradient_59)" fill-rule="nonzero" opacity="1" stroke="none"/>
<path d="M234.615 816.511C234.615 792.999 253.675 773.939 277.187 773.939C300.699 773.939 319.759 792.999 319.759 816.511C319.759 840.023 300.699 859.083 277.187 859.083C253.675 859.083 234.615 840.023 234.615 816.511Z" fill="url(#LinearGradient_60)" fill-rule="nonzero" opacity="1" stroke="none"/>
<path d="M234.615 725.397C234.615 701.886 253.675 682.825 277.187 682.825C300.699 682.825 319.759 701.886 319.759 725.397C319.759 748.909 300.699 767.969 277.187 767.969C253.675 767.969 234.615 748.909 234.615 725.397Z" fill="url(#LinearGradient_61)" fill-rule="nonzero" opacity="1" stroke="none"/>
<path d="M234.615 634.284C234.615 610.772 253.675 591.712 277.187 591.712C300.699 591.712 319.759 610.772 319.759 634.284C319.759 657.796 300.699 676.856 277.187 676.856C253.675 676.856 234.615 657.796 234.615 634.284Z" fill="url(#LinearGradient_62)" fill-rule="nonzero" opacity="1" stroke="none"/>
<path d="M234.615 543.17C234.615 519.658 253.675 500.598 277.187 500.598C300.699 500.598 319.759 519.658 319.759 543.17C319.759 566.682 300.699 585.742 277.187 585.742C253.675 585.742 234.615 566.682 234.615 543.17Z" fill="url(#LinearGradient_63)" fill-rule="nonzero" opacity="1" stroke="none"/>
<path d="M234.615 452.057C234.615 428.545 253.675 409.485 277.187 409.485C300.699 409.485 319.759 428.545 319.759 452.057C319.759 475.568 300.699 494.628 277.187 494.628C253.675 494.628 234.615 475.568 234.615 452.057Z" fill="url(#LinearGradient_64)" fill-rule="nonzero" opacity="1" stroke="none"/>
<path d="M234.615 360.943C234.615 337.431 253.675 318.371 277.187 318.371C300.699 318.371 319.759 337.431 319.759 360.943C319.759 384.455 300.699 403.515 277.187 403.515C253.675 403.515 234.615 384.455 234.615 360.943Z" fill="url(#LinearGradient_65)" fill-rule="nonzero" opacity="1" stroke="none"/>
<g opacity="1">
<path d="M497.428 345.504C497.428 321.993 516.488 302.933 540 302.933C563.512 302.933 582.572 321.993 582.572 345.504C582.572 369.016 563.512 388.076 540 388.076C516.488 388.076 497.428 369.016 497.428 345.504Z" fill="url(#LinearGradient_66)" fill-rule="nonzero" opacity="1" stroke="none"/>
<path d="M587.107 345.997C583.542 322.757 599.491 301.027 622.73 297.461C645.97 293.895 667.7 309.844 671.266 333.084C674.832 356.324 658.883 378.054 635.643 381.62C612.403 385.186 590.673 369.237 587.107 345.997Z" fill="url(#LinearGradient_67)" fill-rule="nonzero" opacity="1" stroke="none"/>
<path d="M677.549 328.047C670.815 305.52 683.617 281.799 706.143 275.064C728.67 268.33 752.391 281.131 759.126 303.658C765.86 326.185 753.058 349.906 730.532 356.64C708.005 363.375 684.284 350.573 677.549 328.047Z" fill="url(#LinearGradient_68)" fill-rule="nonzero" opacity="1" stroke="none"/>
<path d="M771.715 298.158C756.069 280.607 757.613 253.697 775.164 238.051C792.714 222.405 819.625 223.949 835.271 241.5C850.916 259.05 849.372 285.961 831.822 301.607C814.272 317.252 787.361 315.708 771.715 298.158Z" fill="url(#LinearGradient_69)" fill-rule="nonzero" opacity="1" stroke="none"/>
<path d="M406.61 339.535C406.61 316.023 425.671 296.963 449.182 296.963C472.694 296.963 491.754 316.023 491.754 339.535C491.754 363.046 472.694 382.107 449.182 382.107C425.671 382.107 406.61 363.046 406.61 339.535Z" fill="url(#LinearGradient_70)" fill-rule="nonzero" opacity="1" stroke="none"/>
<path d="M316.62 315.841C316.62 292.329 335.68 273.269 359.192 273.269C382.704 273.269 401.764 292.329 401.764 315.841C401.764 339.353 382.704 358.413 359.192 358.413C335.68 358.413 316.62 339.353 316.62 315.841Z" fill="url(#LinearGradient_71)" fill-rule="nonzero" opacity="1" stroke="none"/>
<path d="M234.615 269.829C234.615 246.317 253.675 227.257 277.187 227.257C300.699 227.257 319.759 246.317 319.759 269.829C319.759 293.341 300.699 312.401 277.187 312.401C253.675 312.401 234.615 293.341 234.615 269.829Z" fill="url(#LinearGradient_72)" fill-rule="nonzero" opacity="1" stroke="none"/>
</g>
<g opacity="1">
<path d="M497.428 260.361C497.428 236.849 516.488 217.789 540 217.789C563.512 217.789 582.572 236.849 582.572 260.361C582.572 283.873 563.512 302.933 540 302.933C516.488 302.933 497.428 283.873 497.428 260.361Z" fill="url(#LinearGradient_73)" fill-rule="nonzero" opacity="1" stroke="none"/>
<path d="M587.107 260.853C583.542 237.613 599.491 215.883 622.73 212.317C645.97 208.752 667.7 224.701 671.266 247.941C674.832 271.18 658.883 292.911 635.643 296.476C612.403 300.042 590.673 284.093 587.107 260.853Z" fill="url(#LinearGradient_74)" fill-rule="nonzero" opacity="1" stroke="none"/>
<path d="M399.843 207.112C406.464 229.672 393.543 253.328 370.983 259.95C348.422 266.571 324.766 253.649 318.145 231.089C311.524 208.529 324.445 184.873 347.005 178.252C369.566 171.63 393.222 184.552 399.843 207.112Z" fill="url(#LinearGradient_75)" fill-rule="nonzero" opacity="1" stroke="none"/>
<path d="M308.9 145.696C324.457 163.325 322.778 190.228 305.149 205.785C287.52 221.342 260.617 219.663 245.06 202.034C229.503 184.405 231.182 157.502 248.811 141.945C266.44 126.388 293.343 128.067 308.9 145.696Z" fill="url(#LinearGradient_76)" fill-rule="nonzero" opacity="1" stroke="none"/>
<path d="M406.61 254.391C406.61 230.879 425.671 211.819 449.182 211.819C472.694 211.819 491.754 230.879 491.754 254.391C491.754 277.903 472.694 296.963 449.182 296.963C425.671 296.963 406.61 277.903 406.61 254.391Z" fill="url(#LinearGradient_77)" fill-rule="nonzero" opacity="1" stroke="none"/>
<path d="M760.706 221.135C760.588 244.646 741.432 263.61 717.92 263.492C694.409 263.373 675.445 244.217 675.563 220.706C675.682 197.194 694.838 178.231 718.349 178.349C741.861 178.467 760.825 197.623 760.706 221.135Z" fill="url(#LinearGradient_78)" fill-rule="nonzero" opacity="1" stroke="none"/>
<path d="M845.851 176.729C845.732 200.241 826.577 219.205 803.065 219.086C779.554 218.968 760.59 199.812 760.708 176.301C760.827 152.789 779.982 133.825 803.494 133.944C827.005 134.062 845.969 153.218 845.851 176.729Z" fill="url(#LinearGradient_79)" fill-rule="nonzero" opacity="1" stroke="none"/>
</g>
</g>
</svg>
